<svg width="285px" height="286px" viewBox="0 0 285 286" version="1.1" xmlns="http://www.w3.org/2000/svg" xmlns:xlink="http://www.w3.org/1999/xlink">
    <!-- Generator: Sketch 40.3 (33839) - http://www.bohemiancoding.com/sketch -->
    <desc>Created with Sketch.</desc>
    <defs></defs>
    <path d="M243.23792,41.7321429 C230.155462,28.6496849 214.917542,18.3813025 197.943277,11.1964286 C180.370273,3.77205882 161.719538,0 142.470063,0 C123.250525,0.0299369748 104.59979,3.77205882 87.0267857,11.2263655 C70.052521,18.4112395 54.8146008,28.6796218 41.7321429,41.7620798 C28.6496849,54.8445378 18.3813025,70.082458 11.1964286,87.0567227 C3.77205882,104.629727 0,123.280462 0,142.529937 C0,161.749774 3.77205882,180.430147 11.1964286,198.003451 C18.3813025,214.977416 28.6496849,230.215636 41.7321429,243.297794 C54.8146008,256.380551 70.052521,266.648634 87.0267857,273.833508 C104.59979,281.258178 123.250525,285.029937 142.5,285.029937 C161.719538,285.029937 180.400509,281.257878 197.973214,273.833508 C214.947479,266.648634 230.185699,256.380551 243.268157,243.297794 C256.350315,230.215636 266.618997,214.977416 273.803871,198.003451 C281.228241,180.430147 285,161.779711 285,142.529937 C285,123.310399 281.227941,104.629727 273.803871,87.0567227 C266.588761,70.052521 256.320378,54.8445378 243.23792,41.7321429 L243.23792,41.7321429 Z M63.6160714,32.1822479 C64.9033613,31.1943277 66.1607143,30.1465336 67.4779412,29.2184874 C74.3933824,24.3686975 82.0572479,20.4469538 89.8408613,17.1838235 C106.425945,10.2384454 124.448004,6.58613445 142.470063,6.58613445 C154.47479,6.58613445 166.778887,8.20273109 178.364196,11.3760504 C173.783839,13.2321429 168.185625,16.7647059 158.785714,24.7878151 C150.971864,23.9495798 143.068803,23.9196429 135.135504,24.6680672 C124.777012,25.6559874 114.359244,27.9611345 104.180672,31.5535714 C94.990021,34.7867647 87.7153361,38.4690126 82.8056723,41.2830882 C75.2914916,38.5887605 65.5919118,35.4154412 60.8019958,33.8587185 C61.5504202,34.0982143 63.1071429,32.5714286 63.6160714,32.1822479 L63.6160714,32.1822479 Z M193.422794,67.8072479 L169.054097,134.327206 L110.587185,145.553571 L62.2689076,95.6486345 C65.5320378,73.0162815 81.0393908,52.9585084 81.0393908,52.9585084 C81.1292017,52.8986345 91.2478992,45.5940126 107.473739,39.9359244 C116.934123,36.6129202 126.573529,34.487395 136.183298,33.5892857 C144.026786,32.8707983 151.840336,32.9905462 159.564076,33.9185924 L193.422794,67.8072479 L193.422794,67.8072479 Z M11.7652311,137.769958 C10.2683824,147.439601 9.93907563,157.468487 10.717437,167.557248 C9.54989496,165.222463 8.62184874,163.246922 7.93329832,161.659963 C7.03518908,155.403136 6.58613445,148.996324 6.58613445,142.470362 C6.58613445,122.412589 10.9269958,103.342736 18.7405462,86.1888498 C17.8723739,95.1699422 18.2914916,104.480341 18.9201681,111.545467 C15.5672269,119.957458 13.1722689,128.728992 11.7652311,137.769958 L11.7652311,137.769958 Z M23.5903361,189.591161 C22.2132353,184.531812 20.5966387,177.167316 19.7883403,168.335909 C18.8902311,158.366597 19.1596639,148.457757 20.6565126,138.967437 C21.7941176,131.692752 23.6202731,124.627925 26.134979,117.831933 C35.9842437,109.509454 49.0367647,104.629727 56.2515756,102.384454 L103.671744,151.361345 L98.7022059,205.03834 L52.3597689,220.515756 C40.5646008,211.834034 30.924895,200.337936 23.5903361,189.591161 L23.5903361,189.591161 Z M164.413866,267.307248 C154.085609,274.073004 127.980567,275.689601 117.382878,276.078482 C105.707458,273.893382 94.3613445,270.151261 83.6735452,265.001801 C74.333209,260.511255 65.4718645,254.942978 57.3888813,248.417316 C57.5385662,248.147883 56.1315284,233.867348 56.1914023,228.658913 L103.012831,213.031513 L157.04907,236.41229 L164.503078,267.217437 C164.443803,267.27761 164.413866,267.307248 164.413866,267.307248 L164.413866,267.307248 Z M254.194853,219.917017 C246.141807,231.532563 236.502101,242.339811 224.916492,250.542542 C214.04937,258.206408 199.500299,260.840861 186.567227,262.966387 C185.579307,263.116071 173.215336,265.151486 173.125525,264.732668 L165.671518,233.897584 L203.721113,194.290966 L254.105042,189.650735 C254.883703,197.674144 255.901261,209.379202 256.5,216.534438 C255.721639,217.671744 254.973214,218.809349 254.194853,219.917017 L254.194853,219.917017 Z M254.973214,179.621849 C254.793592,179.921218 254.613971,180.250525 254.434349,180.610068 L204.259979,185.219764 L177.256828,137.979517 L201.685399,71.3098739 L236.172794,73.4952731 C243.507353,79.6323529 250.003676,86.4579832 255.51208,93.822479 C262.397584,103.073004 267.756303,113.221639 271.408913,123.969013 C267.576681,157.259228 258.745273,173.843713 254.973214,179.621849 L254.973214,179.621849 Z M272.965336,104.719538 C270.001875,99.0015756 266.528887,93.4931723 262.607143,88.2542017 C256.410189,79.9616597 249.045693,72.3277311 240.693277,65.5320378 C239.166492,57.9579832 234.975315,46.0430672 223.719013,33.5294118 C223.928571,33.6790966 224.13813,33.8587185 224.347988,34.0084034 C225.036539,34.5173319 225.695152,35.0561975 226.383703,35.5651261 C234.137379,41.6722689 241.202505,48.5877101 247.459333,56.1917017 C259.074879,70.3518908 267.846413,86.7872899 272.995572,104.420168 C272.965336,104.539916 272.965336,104.629727 272.965336,104.719538 L272.965336,104.719538 Z"
          id="Shape" stroke="none" fill="#FFFFFF" fill-rule="evenodd"></path>
</svg>