<svg width="286px" height="213px" viewBox="910 1205 286 213" version="1.1" xmlns="http://www.w3.org/2000/svg" xmlns:xlink="http://www.w3.org/1999/xlink">
    <!-- Generator: Sketch 40.3 (33839) - http://www.bohemiancoding.com/sketch -->
    <desc>Created with Sketch.</desc>
    <defs></defs>
    <g id="gaming" stroke="none" stroke-width="1" fill="none" fill-rule="evenodd" transform="translate(910.071668, 1205.000000)">
        <g id="Capa_1" fill="#545454">
            <g id="Game_Pad">
                <path d="M278.517064,92.3558075 C264.560432,28.3935318 244.881485,12.6241517 232.900326,6.30022023 C213.709551,-3.82774062 191.461884,2.06566884 184.081175,5.88550571 C175.700873,10.2018842 170.043646,18.4194617 161.524796,21.9877732 C151.680905,26.0926101 138.293344,27.2061093 128.222569,22.2481321 C120.199796,18.2897471 113.119894,9.83598695 103.398279,6.09704731 C91.0753997,1.34177814 70.5512153,-5.32340946 50.2302039,9.24274062 C45.4261175,12.6892414 11.1652121,41.4147308 0.874526917,131.152072 C-5.47358075,186.48345 24.8614845,204.284095 23.7479853,203.479772 C31.5513132,209.072374 49.0274388,218.525261 72.7056852,203.715954 C88.5317863,193.823711 101.374454,174.282847 101.374454,174.282847 C101.374454,174.282847 107.09677,163.415188 114.696925,158.797537 C120.077985,155.522129 128.124935,158.009486 128.124935,158.009486 L156.599364,158.009486 C156.599364,158.009486 165.638002,156.871811 171.986574,159.675783 C178.147781,162.366313 181.626362,169.00686 181.626362,169.00686 C181.626362,169.00686 200.394984,193.26208 218.383458,205.625408 C226.040334,210.876754 256.814755,216.924519 272.705481,197.513834 C283.084967,184.808785 290.164869,145.751697 278.517064,92.3558075 L278.517064,92.3558075 Z M126.401917,86.690677 C126.401917,91.5514845 122.540701,95.4856933 117.777529,95.4856933 L96.2049347,95.4856933 L96.2049347,117.505546 C96.2049347,122.374723 92.3437194,126.31637 87.5805465,126.31637 L81.1101631,126.31637 C76.3469902,126.31637 72.4862398,122.382626 72.4862398,117.505546 L72.4862398,95.4856933 L50.9048124,95.4856933 C46.1416395,95.4856933 42.2804241,91.5593883 42.2804241,86.690677 L42.2804241,80.0905791 C42.2804241,75.2214029 46.1416395,71.2792904 50.9048124,71.2792904 L72.4774062,71.2792904 L72.4774062,49.2836134 C72.4774062,44.4228059 76.3386215,40.4723246 81.1017945,40.4723246 L87.5721778,40.4723246 C92.3353507,40.4723246 96.1965661,44.4144372 96.1965661,49.2836134 L96.1965661,71.2871941 L117.76916,71.2871941 C122.532333,71.2871941 126.393548,75.2214029 126.393548,80.0984829 L126.393548,86.690677 L126.401917,86.690677 L126.401917,86.690677 Z M187.161778,117.497178 C178.228679,117.497178 170.986517,110.116468 170.986517,100.988564 C170.986517,91.8764682 178.228679,84.4878548 187.161778,84.4878548 C196.094878,84.4878548 203.337504,91.8685644 203.337504,100.988564 C203.345408,110.116468 196.094413,117.497178 187.161778,117.497178 L187.161778,117.497178 Z M216.822235,80.8298124 C207.986305,80.8298124 200.825506,73.5225612 200.825506,64.4997308 C200.825506,55.5015416 207.986305,48.1942904 216.822235,48.1942904 C225.6577,48.1942904 232.818499,55.5020065 232.818499,64.4997308 C232.818964,73.5225612 225.6577,80.8298124 216.822235,80.8298124 L216.822235,80.8298124 Z"
                      id="Shape"></path>
            </g>
        </g>
    </g>
</svg>