<svg width="100px" height="75px" viewBox="932 199 100 75" version="1.1" xmlns="http://www.w3.org/2000/svg" xmlns:xlink="http://www.w3.org/1999/xlink">
    <!-- Generator: Sketch 40.3 (33839) - http://www.bohemiancoding.com/sketch -->
    <desc>Created with Sketch.</desc>
    <defs></defs>
    <g id="gaming" stroke="none" stroke-width="1" fill="none" fill-rule="evenodd" transform="translate(932.000000, 199.000000)">
        <g id="Capa_1" fill="#FFFFFF">
            <g id="Game_Pad">
                <path d="M97.7252855,32.4055465 C92.8282219,9.96264274 85.9233279,4.42952692 81.7194127,2.21060359 C74.9858075,-1.34306688 67.1796085,0.724796085 64.5898858,2.06508972 C61.649429,3.57960848 59.6644372,6.462969 56.675367,7.71500816 C53.2213703,9.15530179 48.5239804,9.54600326 44.9903752,7.80636215 C42.175367,6.41745514 39.6911909,3.45122349 36.2800979,2.13931485 C31.9562806,0.470799347 24.7548124,-1.86786297 17.624633,3.24306688 C15.9389886,4.45236542 3.91761827,14.5314845 0.30685155,46.0182708 C-1.92055465,65.4327896 8.7233279,71.6786297 8.33262643,71.3964111 C11.0706362,73.3587276 17.2026101,76.6755302 25.5107667,71.4792822 C31.0637847,68.0083197 35.5699837,61.151876 35.5699837,61.151876 C35.5699837,61.151876 37.577814,57.3386623 40.2445351,55.7184339 C42.1326264,54.569168 44.9561175,55.441925 44.9561175,55.441925 L54.9471452,55.441925 C54.9471452,55.441925 58.1185971,55.0427406 60.3461664,56.0265905 C62.5079935,56.9706362 63.7285481,59.3006525 63.7285481,59.3006525 C63.7285481,59.3006525 70.3140294,67.8112561 76.6257749,72.1492659 C79.312398,73.9918434 90.1104405,76.1138662 95.6861338,69.3030995 C99.3280587,64.8451876 101.812235,51.1409462 97.7252855,32.4055465 L97.7252855,32.4055465 Z M44.3515498,30.4177814 C44.3515498,32.1233279 42.9967374,33.503752 41.3254486,33.503752 L33.7561175,33.503752 L33.7561175,41.2300163 C33.7561175,42.9384992 32.4013051,44.3215334 30.7300163,44.3215334 L28.4597064,44.3215334 C26.7884176,44.3215334 25.4337684,42.9412724 25.4337684,41.2300163 L25.4337684,33.503752 L17.8613377,33.503752 C16.1900489,33.503752 14.8352365,32.1261011 14.8352365,30.4177814 L14.8352365,28.1019576 C14.8352365,26.3934747 16.1900489,25.0102773 17.8613377,25.0102773 L25.4306688,25.0102773 L25.4306688,17.2924959 C25.4306688,15.5869494 26.7854812,14.2008157 28.45677,14.2008157 L30.7270799,14.2008157 C32.3983687,14.2008157 33.7531811,15.5840131 33.7531811,17.2924959 L33.7531811,25.0130506 L41.3225122,25.0130506 C42.993801,25.0130506 44.3486134,26.3934747 44.3486134,28.1047308 L44.3486134,30.4177814 L44.3515498,30.4177814 L44.3515498,30.4177814 Z M65.6707993,41.2270799 C62.5363785,41.2270799 59.9952692,38.6373573 59.9952692,35.434584 C59.9952692,32.2373573 62.5363785,29.6448613 65.6707993,29.6448613 C68.8052202,29.6448613 71.3464927,32.234584 71.3464927,35.434584 C71.3492659,38.6373573 68.8050571,41.2270799 65.6707993,41.2270799 L65.6707993,41.2270799 Z M76.0779772,28.3613377 C72.9776509,28.3613377 70.4650897,25.7973899 70.4650897,22.6314845 C70.4650897,19.4742251 72.9776509,16.9102773 76.0779772,16.9102773 C79.1781403,16.9102773 81.6907015,19.4743883 81.6907015,22.6314845 C81.6908646,25.7973899 79.1781403,28.3613377 76.0779772,28.3613377 L76.0779772,28.3613377 Z"
                      id="Shape"></path>
            </g>
        </g>
    </g>
</svg>