<svg width="27px" height="21px" viewBox="0 110 27 21" version="1.1" xmlns="http://www.w3.org/2000/svg" xmlns:xlink="http://www.w3.org/1999/xlink">
    <!-- Generator: Sketch 40.3 (33839) - http://www.bohemiancoding.com/sketch -->
    <desc>Created with Sketch.</desc>
    <defs></defs>
    <g id="gaming" stroke="none" stroke-width="1" fill="none" fill-rule="evenodd" transform="translate(0.000000, 110.000000)">
        <g id="Capa_1" fill="#4285F4">
            <g id="Game_Pad">
                <path d="M26.3653331,8.83654039 C25.0441542,2.78166861 23.1812826,1.2888891 22.0471082,0.690245696 C20.2304486,-0.268499184 18.1244139,0.289389638 17.4257325,0.650987505 C16.6324266,1.05958957 16.0968956,1.83749151 15.2904742,2.1752792 C14.3586203,2.56385607 13.0913114,2.66926343 12.1379799,2.19992559 C11.3785187,1.82521232 10.7083128,1.02495258 9.78803386,0.671012703 C8.62151104,0.220863849 6.67862669,-0.410083938 4.75497533,0.968794004 C4.30020527,1.2950507 1.05695936,4.01429658 0.0828104814,12.5091178 C-0.518121514,17.7469614 2.35349193,19.4320269 2.24808456,19.3558871 C2.98677232,19.8853005 4.64111777,20.7801408 6.88257563,19.3782449 C8.38072453,18.4418138 9.59645212,16.5920136 9.59645212,16.5920136 C9.59645212,16.5920136 10.1381447,15.5632466 10.8575995,15.1261251 C11.3669877,14.8160646 12.1287375,15.0515257 12.1287375,15.0515257 L14.8242172,15.0515257 C14.8242172,15.0515257 15.6798433,14.9438298 16.2808193,15.2092627 C16.8640587,15.4639568 17.1933522,16.092572 17.1933522,16.092572 C17.1933522,16.092572 18.9700494,18.388648 20.6728955,19.5589998 C21.3977196,20.0561089 24.3109238,20.6286095 25.8151903,18.7911325 C26.7977454,17.5884323 27.4679514,13.8911645 26.3653331,8.83654039 L26.3653331,8.83654039 Z M11.9656311,8.30026118 C11.9656311,8.76040062 11.6001163,9.1328253 11.1492192,9.1328253 L9.10708909,9.1328253 L9.10708909,11.2172944 C9.10708909,11.6782261 8.74157421,12.0513549 8.29067716,12.0513549 L7.67817016,12.0513549 C7.22727311,12.0513549 6.86180224,11.6789743 6.86180224,11.2172944 L6.86180224,9.1328253 L4.8188359,9.1328253 C4.36793886,9.1328253 4.00242397,8.76114882 4.00242397,8.30026118 L4.00242397,7.67547499 C4.00242397,7.21454334 4.36793886,6.84137046 4.8188359,6.84137046 L6.86096602,6.84137046 L6.86096602,4.75918995 C6.86096602,4.2990505 7.2264809,3.92508543 7.67737795,3.92508543 L8.28988495,3.92508543 C8.740782,3.92508543 9.10629688,4.2982583 9.10629688,4.75918995 L9.10629688,6.84211866 L11.148427,6.84211866 C11.599324,6.84211866 11.9648389,7.21454334 11.9648389,7.67622318 L11.9648389,8.30026118 L11.9656311,8.30026118 L11.9656311,8.30026118 Z M17.7173522,11.2165022 C16.8717167,11.2165022 16.1861507,10.5178208 16.1861507,9.65374453 C16.1861507,8.79116461 16.8717167,8.09173505 17.7173522,8.09173505 C18.5629877,8.09173505 19.2485977,8.79041642 19.2485977,9.65374453 C19.2493459,10.5178208 18.5629437,11.2165022 17.7173522,11.2165022 L17.7173522,11.2165022 Z M20.5251051,7.74545315 C19.688668,7.74545315 19.010804,7.05372559 19.010804,6.19959587 C19.010804,5.34779875 19.688668,4.65607118 20.5251051,4.65607118 C21.3614982,4.65607118 22.0393622,5.34784276 22.0393622,6.19959587 C22.0394062,7.05372559 21.3614982,7.74545315 20.5251051,7.74545315 L20.5251051,7.74545315 Z"
                      id="Shape"></path>
            </g>
        </g>
    </g>
</svg>