<svg width="54px" height="253px" viewBox="693 600 54 253" version="1.1" xmlns="http://www.w3.org/2000/svg" xmlns:xlink="http://www.w3.org/1999/xlink">
    <!-- Generator: Sketch 40.3 (33839) - http://www.bohemiancoding.com/sketch -->
    <desc>Created with Sketch.</desc>
    <defs></defs>
    <g id="martinitoren-groningen" stroke="none" stroke-width="1" fill="none" fill-rule="evenodd" transform="translate(694.000000, 601.000000)">
        <g id="svg2" stroke="#545454" stroke-width="2" fill="#4285F4">
            <g id="layer1" transform="translate(0.500000, 0.625000)">
                <path d="M25.5,0.442216981 L25.5,3.97995283 L22.5,3.97995283 L22.5,5.15919811 L25.5,5.15919811 L25.5,9.87617925 C23.1883,10.3334906 21.47693,13.0017689 21.5,15.7724057 C21.5231,18.5429245 21.98833,20.1106132 23.5,21.6686321 L23.5,26.3856132 L19.5,26.3856132 L19.5,36.9988208 L17.5,36.9988208 L17.5,47.6120283 L18.5,47.6120283 L18.5,38.178066 L21.5,38.178066 L21.5,49.9705189 L22.5,49.9705189 L22.5,38.178066 L28.5,38.178066 L28.5,49.9705189 L29.5,49.9705189 L29.5,38.178066 L33.5,38.178066 L33.5,49.9705189 L34.5,49.9705189 L34.5,36.9988208 L32.5,36.9988208 L32.5,26.3856132 L28.5,26.3856132 L28.5,21.6686321 C30.21536,19.9911557 30.55304,18.0329009 30.5,15.7724057 C30.4469,13.5117925 28.82474,10.3127358 26.5,9.87617925 L26.5,5.15919811 L29.5,5.15919811 L29.5,3.97995283 L26.5,3.97995283 L26.5,0.442216981 L25.5,0.442216981 Z M26.98141,11.2555425 C30.77052,13.4783019 30.28425,19.6231132 27.24582,20.8208726 C29.19021,18.0959906 28.71129,14.2432783 26.98141,11.2555425 L26.98141,11.2555425 Z M24.86612,11.2555425 C23.25,14.740566 23.2701,17.5897406 24.52458,20.9767689 C21.5,19.3101415 21.5625,12.2346698 24.86612,11.2555425 L24.86612,11.2555425 Z M26.0119,10.9666274 C27.89014,14.0014151 27.95162,18.4978774 26.0119,21.1716981 C24.32298,18.4418632 24.12757,14.1785377 26.0119,10.9666274 L26.0119,10.9666274 Z M24.5,21.6686321 L27.5,21.6686321 L27.5,26.3856132 L24.5,26.3856132 L24.5,21.6686321 Z M20.5,27.5648585 L22.5,27.5648585 L22.5,36.9988208 L20.5,36.9988208 L20.5,27.5648585 L20.5,27.5648585 Z M23.5,27.5648585 L27.5,27.5648585 L27.5,36.9988208 L23.5,36.9988208 L23.5,27.5648585 Z M28.5,27.5648585 L31.5,27.5648585 L31.5,36.9988208 L28.5,36.9988208 L28.5,27.5648585 Z M22.5,62.942217 C22.5592,60.6146226 25.03553,58.2274764 26.11095,58.2274764 C27.18637,58.2274764 29.49619,60.8507075 29.5,62.942217 L29.5,74.7346698 L28.5,74.7346698 L28.5,62.942217 C28.4114,61.1955189 26.55471,59.5720519 26.11095,59.5916274 C25.66719,59.6104953 23.5744,61.1396226 23.5,62.942217 L23.5,74.7346698 L22.5,74.7346698 L22.5,62.942217 Z M14.5,61.7629717 C14.49983,60.3477594 15.68539,58.3681604 16.5,58.2252358 C17.34084,58.3431604 18.42454,60.3904481 18.5,61.7629717 L18.5,72.3761792 L17.5,72.3761792 L17.5,61.7629717 C17.517,60.8557783 16.97485,59.534316 16.5,59.4044811 C15.93926,59.5863208 15.45569,60.7748821 15.5,61.7629717 L15.4364,73.5683962 L14.50005,73.5554245 L14.5,61.7629717 Z M31.5,55.8667453 L20.5,55.8667453 L20.5,73.5554245 L19.5,73.5554245 L19.5,55.8667453 L13.5,55.8667453 L13.5,74.7346698 L12.5,74.7346698 L12.5,48.7912736 L13.5,48.7912736 L13.5,54.6875 L14.5,54.6875 L14.5,52.3290094 L15.5,52.3290094 L15.5,54.6875 L16.5,54.6875 L16.5,52.3290094 L17.5,52.3290094 L17.5,54.6875 L18.5,54.6875 L18.5,48.7912736 L19.5,48.7912736 L19.5,54.6875 L22.5,54.6875 L22.5,52.3290094 L23.5,52.3290094 L23.5,54.6875 L25.5,54.6875 L25.5,48.7912736 L26.5,48.7912736 L26.5,54.6875 L28.5,54.6875 L28.5,52.3290094 L29.5,52.3290094 L29.5,54.6875 L31.5,54.6875 L31.5,48.7912736 L32.5,48.7912736 L32.5,54.6875 L33.5,54.6875 L33.5,52.3290094 L34.5,52.3290094 L34.5,54.6875 L35.5,54.6875 L35.5,52.3290094 L36.5,52.3290094 L36.5,54.6875 L37.5,54.6875 L37.5,48.7912736 L38.5,48.7912736 L38.5,74.7346698 L37.5,74.7346698 L37.50001,55.8667453 L32.50001,55.8667453 L32.50001,75.9139151 L31.50001,75.9139151 L31.5,55.8667453 Z M7.5,72.3761792 L7.37469,116.01816 L8.43233,116.01816 L8.50003,80.6308962 L25.50003,80.6308962 L25.50003,121.904481 L23.50003,121.904481 L23.50003,119.545991 L22.50003,119.545991 L22.50003,121.904481 L20.50003,121.904481 L20.50003,119.545991 L19.50003,119.545991 L19.50003,121.904481 L17.50003,121.904481 L17.50003,119.545991 L16.50003,119.545991 L16.50003,121.904481 L14.50003,121.904481 L14.50003,119.545991 L13.50003,119.545991 L13.50003,121.904481 L11.50003,121.904481 L11.50003,119.545991 L10.50003,119.545991 L10.50003,121.904481 L8.50003,121.904481 L8.50003,119.545991 L7.50003,119.545991 L7.50003,121.904481 L4.50003,121.904481 L4.50003,113.649764 L3.50003,113.649764 L3.50003,193.838443 L0.50003,193.838443 L0.50003,249.262972 L50.50003,249.262972 L50.50003,193.838443 L47.50003,193.838443 L47.50003,112.470519 L46.50003,112.470519 L46.50003,121.904481 L44.50003,121.904481 L44.50003,119.545991 L43.50003,119.545991 L43.50003,121.904481 L41.50003,121.904481 L41.50003,119.545991 L40.50003,119.545991 L40.50003,121.904481 L38.50003,121.904481 L38.50003,119.545991 L37.50003,119.545991 L37.50003,121.904481 L35.50003,121.904481 L35.50003,119.545991 L34.50003,119.545991 L34.50003,121.904481 L32.50003,121.904481 L32.50003,119.545991 L31.50003,119.545991 L31.50003,121.904481 L29.50003,121.904481 L29.50003,119.545991 L28.50003,119.545991 L28.50003,121.904481 L26.50003,121.904481 L26.50003,80.6308962 L42.50003,80.6308962 L42.5,114.829009 L43.5,114.829009 L43.50003,72.3761792 L42.50003,72.3761792 L42.50003,79.4516509 L41.50003,79.4516509 L41.50003,77.0931604 L40.50003,77.0931604 L40.50003,79.4516509 L38.50003,79.4516509 L38.50003,77.0931604 L37.50003,77.0931604 L37.50003,79.4516509 L35.50003,79.4516509 L35.50003,77.0931604 L34.50003,77.0931604 L34.50003,79.4516509 L32.50003,79.4516509 L32.50003,77.0931604 L31.50003,77.0931604 L31.50003,79.4516509 L29.50003,79.4516509 L29.50003,77.0931604 L28.50003,77.0931604 L28.50003,79.4516509 L26.50003,79.4516509 L26.50003,72.3761792 L25.50003,72.3761792 L25.50003,79.4516509 L23.50003,79.4516509 L23.50003,77.0931604 L22.50003,77.0931604 L22.50003,79.4516509 L20.50003,79.4516509 L20.50003,77.0931604 L19.50003,77.0931604 L19.50003,79.4516509 L17.50003,79.4516509 L17.50003,77.0931604 L16.50003,77.0931604 L16.50003,79.4516509 L14.50003,79.4516509 L14.50003,77.0931604 L13.50003,77.0931604 L13.50003,79.4516509 L11.50003,79.4516509 L11.50003,77.0931604 L10.50003,77.0931604 L10.50003,79.4516509 L8.50003,79.4516509 L8.50003,72.3761792 L7.5,72.3761792 Z M34.5,82.9893868 C33.21727,83.0011792 30.46883,85.715684 30.5,87.7063679 L30.5,114.829009 L31.5,114.829009 L31.5,87.7063679 C31.5575,85.5498821 33.90137,84.0819575 34.5,84.1686321 C35.14349,84.0813679 37.39238,86.1034198 37.5,87.7063679 L37.5,114.829009 L38.5,114.829009 L38.5,87.7063679 C38.4025,85.6424528 35.8291,83.0360849 34.5,82.9893868 L34.5,82.9893868 Z M16.95938,83.2457547 C16.07959,83.2681604 13.57497,85.1794811 13.5,87.7063679 L13.5,114.829009 L14.5,114.829009 C14.5,114.829009 14.5454,87.8397406 14.5,87.7063679 C15.0873,85.5294811 16.49283,84.8832547 17.00896,84.8892689 C17.64307,84.9010613 19.34333,86.2340802 19.5,87.7063679 L19.5,114.829009 L20.5,114.829009 L20.5,87.7063679 C20.37444,84.9856132 17.87012,83.2224057 16.95938,83.2457547 L16.95938,83.2457547 Z M10.5,90.0244104 L10.5,116.008255 L11.5,116.008255 L11.5576,90.0244104 L10.5,90.0244104 Z M22.5,90.0645047 L22.5,114.828656 L23.5,114.828656 L23.5,90.0645047 L22.5,90.0645047 Z M4.5,123.083726 L25.5,123.083726 L25.5,193.838443 L22.5,193.838443 L22.5,136.055425 L21.5,136.055425 L21.5,193.838443 L18.5,193.838443 L18.5,132.517689 C18.5383,130.583137 16.5,126.621108 14.5,126.621108 C12.5,126.621108 10.51253,130.067571 10.5,132.517335 L10.5,193.83809 L8.5,193.838443 L8.5,136.055425 L7.5,136.055425 L7.5,193.838443 L4.5,193.838443 L4.5,123.083726 Z M26.5,123.083726 L46.5,123.083726 L46.5,193.838443 L40.5,193.838443 L40.5,132.517689 C40.4331,129.844693 37.42324,126.639505 36.5,126.621462 C35.40483,126.600236 32.53766,129.968042 32.5,132.517335 L32.5,193.83809 L26.5,193.838443 L26.5,123.083726 Z M36.5,127.800354 C37.364,127.770873 39.46408,130.871698 39.5,132.517689 L39.5,193.838443 L33.5,193.83809 L33.5,132.517335 C33.491,130.932783 35.72345,127.813325 36.5,127.800354 L36.5,127.800354 Z M17.5,132.517689 L17.5,193.838443 L11.5,193.83809 L11.5,132.517335 C11.4761,130.620755 13.5,127.800354 14.5,127.800354 C15.5,127.800354 17.48231,130.59092 17.5,132.517689 L17.5,132.517689 Z M1.5,195.017335 L25.5,195.017689 L25.5,248.083373 L22.5,248.083373 L22.5,211.526769 L21.5,211.526769 L21.5,248.083373 L18.5,248.083373 L18.5,207.989033 C18.4477,205.503066 16.28255,202.429717 14.5,202.092807 C12.41534,202.662736 10.4643,206.118514 10.45948,207.999882 L10.49998,248.083373 L6.49998,248.083373 L6.49998,211.526769 L5.49998,211.526769 L5.49998,248.083373 L1.49998,248.083373 L1.5,195.017335 Z M26.5,195.017689 L49.5,195.017689 L49.5,248.083373 L42.5,248.083726 L42.5,207.989387 C42.38494,205.999646 39.52981,202.007075 38,202.09316 C36.57511,202.067217 33.51202,206.22158 33.5,207.989387 L33.5,248.083726 L26.5,248.083373 L26.5,195.017689 Z M41.5,207.989387 L41.5,248.083726 L34.5,248.083726 L34.5,207.989387 C34.4097,206.541392 37.11836,203.272406 38,203.272406 C39,203.272406 41.31065,205.698113 41.5,207.989387 L41.5,207.989387 Z M14.5,203.272052 C15.34658,203.283844 17.50905,206.539976 17.5,207.989033 L17.5,248.083373 L11.5,248.083373 L11.5,207.989033 C11.44,206.596816 13.54932,203.33066 14.5,203.272052 L14.5,203.272052 Z"
                      id="path3817"></path>
            </g>
        </g>
    </g>
</svg>