<svg width="250px" height="228px" viewBox="990 624 250 228" version="1.1" xmlns="http://www.w3.org/2000/svg" xmlns:xlink="http://www.w3.org/1999/xlink">
    <!-- Generator: Sketch 40.3 (33839) - http://www.bohemiancoding.com/sketch -->
    <desc>Created with Sketch.</desc>
    <defs></defs>
    <path d="M1236.01874,786.857681 L1236.01874,772.744235 C1217.28873,765.889996 1200.65191,754.532752 1191.66995,743.918958 L1165.68922,759.410504 C1190.82544,764.874553 1216.0642,779.072619 1226.16815,793.48828 L1236.01874,786.857681 L1236.01874,786.857681 L1236.01874,786.857681 Z M1236.01874,767.328541 L1236.03081,740.981427 L1202.34695,737.578484 L1197.78661,740.655034 C1205.49577,750.126455 1219.61717,760.540789 1236.01874,767.328541 L1236.01874,767.328541 L1236.01874,767.328541 Z M1236.01874,736.375668 L1236.01874,717.487223 L1208.94619,733.24472 C1208.54203,733.317251 1208.68681,733.577156 1208.723,733.76453 L1236.01874,736.375668 L1236.01874,736.375668 L1236.01874,736.375668 Z M1235.99461,698.653178 L1236.01874,689.193845 L1236.01874,689.127357 C1220.65471,687.090427 1205.03129,687.211313 1193.82948,692.276439 L1177.75967,700.248873 L1116.78008,736.188295 C1104.67947,743.048578 1087.24035,743.562343 1069.97617,744.287659 L1070.0184,744.656362 C1089.93072,748.319209 1116.83437,751.710063 1134.22523,746.034463 L1153.26287,736.65975 L1204.71761,706.401973 C1213.13858,701.868746 1224.01465,699.076279 1235.99461,698.653178 L1235.99461,698.653178 L1235.99461,698.653178 Z M1150.09597,813.180617 C1146.51283,813.404257 1142.39284,814.208148 1139.51547,816.142326 C1134.44238,822.337735 1155.4767,823.486153 1141.39149,830.376658 C1137.68771,832.117417 1133.48326,831.948176 1130.03887,831.464632 C1124.52543,830.249727 1120.35718,826.786342 1121.88936,822.827324 C1123.56631,817.66549 1130.52748,813.319636 1139.20783,810.569479 C1165.32126,804.694417 1183.30931,807.148404 1209.67609,803.618531 C1219.58097,802.464069 1220.47977,803.739418 1220.44358,797.314324 C1219.03204,793.603123 1214.36311,790.091382 1211.35907,786.47689 C1184.92594,763.973953 1142.29632,757.446106 1100.46295,755.427309 L1100.50518,755.796012 C1118.58371,764.542116 1132.35524,774.87183 1148.29234,784.391606 C1156.56249,789.088029 1168.54849,789.565528 1178.73689,788.852301 L1182.19938,793.155843 L1181.65045,793.48828 L1120.65879,797.26597 L1120.03747,797.26597 C1103.92544,776.394994 1073.89108,752.229873 1034.88078,742.552945 C1027.8231,740.933072 1018.33444,740.038515 1012.21175,742.184243 C1005.63061,745.689938 1010.40208,756.080094 995.357755,753.432689 C993.306804,752.937056 991.750494,751.643576 990.857728,750.573735 C988.794712,746.741647 990.580246,743.447502 994.85105,741.060002 C1009.7506,733.637599 1034.54901,737.971364 1055.13694,737.264181 C1066.64639,736.937788 1079.61564,735.160763 1082.64381,728.010354 C1082.95145,724.891494 1078.71081,722.401241 1074.34952,720.666526 C1068.88434,719.185672 1061.87492,719.481843 1057.07931,720.636305 C1054.93788,719.910989 1052.57928,718.587287 1051.2703,717.360293 C1060.3548,713.437541 1071.47819,710.149441 1084.88779,713.18368 C1090.50378,714.247477 1095.46225,716.405293 1100.43883,718.587287 C1105.92814,716.04868 1109.43888,712.307256 1111.8578,708.626276 C1115.01867,703.367733 1110.51261,697.408051 1102.99045,693.273749 C1096.92808,689.205933 1089.26114,687.211313 1080.89447,687.833876 L1074.42191,688.528971 L1071.07404,684.974921 C1080.7135,680.278499 1096.60837,679.91584 1109.40269,683.500112 C1118.20368,686.020586 1126.75132,690.880205 1133.13943,695.546406 C1139.69041,691.732451 1146.54903,687.090427 1154.78902,684.624352 C1170.23148,679.432296 1191.51914,679.293277 1211.74514,681.608245 L1211.69688,681.233498 C1199.77723,677.431632 1186.19873,672.662678 1178.62831,665.288629 C1170.26164,659.95151 1164.94726,651.308158 1151.59195,649.688285 C1144.16027,649.410247 1138.97257,651.713126 1133.29627,653.459929 C1130.91354,652.601638 1128.31969,651.15705 1126.80561,649.778949 C1140.49269,643.589584 1161.78035,641.437812 1180.57672,646.26721 C1206.42473,653.02474 1208.5179,669.39271 1230.25195,679.31141 C1232.15813,680.163657 1234.07637,680.937328 1236.01874,681.735175 L1236.01874,624 L1240,624 L1240,851.985038 L1236.01874,851.985038 L1236.03081,815.187325 C1210.49044,822.482799 1182.35622,813.083908 1150.09597,813.180617 L1150.09597,813.180617 L1150.09597,813.180617 Z"
          id="Fill-3" stroke="none" fill="#545454" fill-rule="evenodd"></path>
</svg>