<svg width="100px" height="115px" viewBox="932 199 100 115" version="1.1" xmlns="http://www.w3.org/2000/svg" xmlns:xlink="http://www.w3.org/1999/xlink">
    <!-- Generator: Sketch 40.3 (33839) - http://www.bohemiancoding.com/sketch -->
    <desc>Created with Sketch.</desc>
    <defs></defs>
    <g id="game" stroke="none" stroke-width="1" fill="none" fill-rule="evenodd" transform="translate(932.000000, 199.000000)">
        <g id="Layer_1" fill="#FFFFFF">
            <path d="M98.7165179,90.5546875 C97.9625,90.1339286 97.0417411,90.1551339 96.3064732,90.6075893 L89.2348214,94.9700893 L89.2348214,83.5649554 L96.3064732,87.9279018 C97.0392857,88.3803571 97.9627232,88.4015625 98.7165179,87.9808036 C99.4705357,87.5600446 99.9361607,86.7665179 99.9361607,85.9013393 L99.9361607,72.3716518 C99.9361607,71.5091518 99.4705357,70.7129464 98.7165179,70.2921875 C97.9625,69.8714286 97.0417411,69.8926339 96.3064732,70.3450893 L89.2348214,74.7075893 L89.2348214,66.6861607 C89.2348214,58.3948661 82.4883929,51.6511161 74.1997768,51.6511161 C65.9111607,51.6511161 59.1674107,58.3948661 59.1674107,66.6861607 L59.1674107,84.6075893 C59.1674107,90.9174107 54.0323661,96.0497768 47.7225446,96.0497768 C41.6482143,96.0497768 36.6665179,91.2928571 36.3013393,85.3060268 L66.8185268,34.9388393 C67.4508929,33.8964286 67.2895089,32.5604911 66.4270089,31.6979911 L35.5049107,0.775892857 C34.4705357,-0.258482143 32.7957589,-0.258482143 31.7613839,0.775892857 L0.839285714,31.6977679 C-0.0232142857,32.5602679 -0.184598214,33.8962054 0.447767857,34.9386161 L31.0073661,85.3772321 C31.4120536,94.2479911 38.7537946,101.340848 47.7223214,101.340848 C56.9502232,101.340848 64.4584821,93.8352679 64.4584821,84.6073661 L64.4584821,66.6859375 C64.4584821,61.3127232 68.8290179,56.9421875 74.1995536,56.9421875 C79.5727679,56.9421875 83.9433036,61.3127232 83.9433036,66.6859375 L83.9433036,74.7073661 L76.8689732,70.3448661 C76.1334821,69.8924107 75.2127232,69.8712054 74.4589286,70.2919643 C73.7049107,70.7127232 73.2392857,71.5089286 73.2392857,72.3714286 L73.2392857,85.8984375 C73.2392857,86.7636161 73.7075893,87.5571429 74.4616071,87.9779018 C75.2129464,88.3986607 76.1337054,88.3801339 76.8691964,87.9276786 L83.9435268,83.5651786 L83.9435268,94.9703125 L76.8691964,90.6078125 C76.1337054,90.1553571 75.2129464,90.1341518 74.4591518,90.5549107 C73.7053571,90.9756696 73.2395089,91.771875 73.2395089,92.634375 L73.2395089,106.16942 C73.2395089,107.03192 73.7078125,107.828125 74.4591518,108.248884 C75.2131696,108.669643 76.1363839,108.648437 76.871875,108.195982 L76.8691964,108.190625 L83.9435268,103.83058 L83.9435268,111.640402 C83.9435268,113.10067 85.1261161,114.285937 86.5890625,114.285937 C88.0493304,114.285937 89.2345982,113.10067 89.2345982,111.640402 L89.2345982,103.830357 L96.30625,108.190402 C96.6872768,108.425893 97.1212054,108.544866 97.5575893,108.544866 C97.9544643,108.544866 98.3564732,108.44442 98.7162946,108.243304 C99.4703125,107.822545 99.9359375,107.026339 99.9359375,106.163839 L99.9359375,92.6341518 C99.9361607,91.7716518 99.4705357,90.9754464 98.7165179,90.5546875 L98.7165179,90.5546875 Z M95.1741071,76.6361607 L95.1741071,81.6363839 L91.1236607,79.1361607 L95.1741071,76.6361607 L95.1741071,76.6361607 Z M30.9888393,75.1363839 L7.40580357,36.2140625 L30.9888393,36.2140625 L30.9888393,75.1363839 L30.9888393,75.1363839 Z M30.9888393,30.9225446 L9.09642857,30.9225446 L30.9888393,9.0328125 L30.9888393,30.9225446 L30.9888393,30.9225446 Z M36.2801339,9.03549107 L58.1698661,30.9225446 L36.2801339,30.9225446 L36.2801339,9.03549107 L36.2801339,9.03549107 Z M36.2799107,36.2138393 L59.8602679,36.2138393 L36.2799107,75.1334821 L36.2799107,36.2138393 L36.2799107,36.2138393 Z M78.0013393,81.6363839 L78.0013393,76.6361607 L82.0517857,79.1361607 L78.0013393,81.6363839 L78.0013393,81.6363839 Z M78.0013393,101.899107 L78.0013393,96.9015625 L82.0517857,99.3991071 L78.0013393,101.899107 L78.0013393,101.899107 Z M95.1741071,101.89933 L91.1236607,99.3991071 L95.1741071,96.9015625 L95.1741071,101.89933 L95.1741071,101.89933 Z"
                  id="Shape"></path>
        </g>
    </g>
</svg>