<svg width="100px" height="100px" viewBox="932 199 100 100" version="1.1" xmlns="http://www.w3.org/2000/svg" xmlns:xlink="http://www.w3.org/1999/xlink">
    <!-- Generator: Sketch 40.3 (33839) - http://www.bohemiancoding.com/sketch -->
    <desc>Created with Sketch.</desc>
    <defs></defs>
    <g id="info-circle" stroke="none" stroke-width="1" fill="none" fill-rule="evenodd" transform="translate(932.000000, 199.000000)">
        <path d="M66.6666667,81.25 L66.6666667,70.8333333 C66.6666667,70.2256944 66.4713542,69.7265625 66.0807292,69.3359375 C65.6901042,68.9453125 65.1909722,68.75 64.5833333,68.75 L58.3333333,68.75 L58.3333333,35.4166667 C58.3333333,34.8090278 58.1380208,34.3098958 57.7473958,33.9192708 C57.3567708,33.5286458 56.8576389,33.3333333 56.25,33.3333333 L35.4166667,33.3333333 C34.8090278,33.3333333 34.3098958,33.5286458 33.9192708,33.9192708 C33.5286458,34.3098958 33.3333333,34.8090278 33.3333333,35.4166667 L33.3333333,45.8333333 C33.3333333,46.4409722 33.5286458,46.9401042 33.9192708,47.3307292 C34.3098958,47.7213542 34.8090278,47.9166667 35.4166667,47.9166667 L41.6666667,47.9166667 L41.6666667,68.75 L35.4166667,68.75 C34.8090278,68.75 34.3098958,68.9453125 33.9192708,69.3359375 C33.5286458,69.7265625 33.3333333,70.2256944 33.3333333,70.8333333 L33.3333333,81.25 C33.3333333,81.8576389 33.5286458,82.3567708 33.9192708,82.7473958 C34.3098958,83.1380208 34.8090278,83.3333333 35.4166667,83.3333333 L64.5833333,83.3333333 C65.1909722,83.3333333 65.6901042,83.1380208 66.0807292,82.7473958 C66.4713542,82.3567708 66.6666667,81.8576389 66.6666667,81.25 L66.6666667,81.25 Z M58.3333333,22.9166667 L58.3333333,12.5 C58.3333333,11.8923611 58.1380208,11.3932292 57.7473958,11.0026042 C57.3567708,10.6119792 56.8576389,10.4166667 56.25,10.4166667 L43.75,10.4166667 C43.1423611,10.4166667 42.6432292,10.6119792 42.2526042,11.0026042 C41.8619792,11.3932292 41.6666667,11.8923611 41.6666667,12.5 L41.6666667,22.9166667 C41.6666667,23.5243056 41.8619792,24.0234375 42.2526042,24.4140625 C42.6432292,24.8046875 43.1423611,25 43.75,25 L56.25,25 C56.8576389,25 57.3567708,24.8046875 57.7473958,24.4140625 C58.1380208,24.0234375 58.3333333,23.5243056 58.3333333,22.9166667 L58.3333333,22.9166667 Z M100,50 C100,59.0711806 97.7647569,67.437066 93.2942708,75.0976562 C88.8237847,82.7582465 82.7582465,88.8237847 75.0976562,93.2942708 C67.437066,97.7647569 59.0711806,100 50,100 C40.9288194,100 32.562934,97.7647569 24.9023438,93.2942708 C17.2417535,88.8237847 11.1762153,82.7582465 6.70572917,75.0976562 C2.23524306,67.437066 0,59.0711806 0,50 C0,40.9288194 2.23524306,32.562934 6.70572917,24.9023438 C11.1762153,17.2417535 17.2417535,11.1762153 24.9023438,6.70572917 C32.562934,2.23524306 40.9288194,0 50,0 C59.0711806,0 67.437066,2.23524306 75.0976562,6.70572917 C82.7582465,11.1762153 88.8237847,17.2417535 93.2942708,24.9023438 C97.7647569,32.562934 100,40.9288194 100,50 L100,50 Z"
              id="Shape" fill="#FFFFFF"></path>
    </g>
</svg>