<?xml version="1.0" encoding="UTF-8"?>
<svg width="512px" height="416px" viewBox="0 0 512 416" version="1.1" xmlns="http://www.w3.org/2000/svg" xmlns:xlink="http://www.w3.org/1999/xlink">
    <!-- Generator: Sketch 40.3 (33839) - http://www.bohemiancoding.com/sketch -->
    <title>map-8</title>
    <desc>Created with Sketch.</desc>
    <defs></defs>
    <g id="Page-1" stroke="none" stroke-width="1" fill="none" fill-rule="evenodd">
        <g id="map-8" fill="#FFFFFF">
            <path d="M416,0 C371.812,0 336,35.813 336,80 C336,91.938 338.625,103.281 343.313,113.438 L416,256 L488.688,113.437 C493.375,103.281 496,91.938 496,80 C496,35.813 460.188,0 416,0 L416,0 Z M416,128 C389.5,128 368,106.5 368,80 C368,53.5 389.5,32 416,32 C442.5,32 464,53.5 464,80 C464,106.5 442.5,128 416,128 L416,128 Z M439.938,279.469 L469.063,337.688 L395.219,374.594 L370.469,250.781 L374.625,246.625 L375.063,246.187 L359.813,216.187 L352,224 L256,160 L160,224 L96,160 L0,352 L128,416 L256,352 L384,416 L512,352 L458,244.031 L439.938,279.469 L439.938,279.469 Z M116.75,374.594 L42.937,337.688 L104.75,214 L137.375,246.625 L141.531,250.781 L116.75,374.594 L116.75,374.594 Z M240,324.219 L150.5,368.969 L173.625,253.375 L177.75,250.625 L240,209.125 L240,324.219 L240,324.219 Z M272,324.219 L272,209.125 L334.25,250.625 L338.344,253.375 L361.469,368.969 L272,324.219 L272,324.219 Z"
                  id="Shape"></path>
        </g>
    </g>
</svg>