<svg width="466px" height="463px" viewBox="0 1 466 463" version="1.1" xmlns="http://www.w3.org/2000/svg" xmlns:xlink="http://www.w3.org/1999/xlink">
    <!-- Generator: Sketch 40.3 (33839) - http://www.bohemiancoding.com/sketch -->
    <desc>Created with Sketch.</desc>
    <defs></defs>
    <g id="66163" stroke="none" stroke-width="1" fill="none" fill-rule="evenodd" transform="translate(0.000000, 1.000000)">
        <g id="Layer_2_16_" fill="#FFFFFF">
            <g id="Group">
                <path d="M279.591,422.714 C275.755,423.67 271.844,424.519 267.962,425.234 C257.814,427.121 251.105,436.881 252.982,447.038 C253.909,452.035 256.747,456.197 260.6,458.914 C264.571,461.709 269.625,462.971 274.775,462.013 C279.398,461.155 284.057,460.146 288.629,459.005 C298.65,456.511 304.755,446.359 302.255,436.343 C299.761,426.318 289.618,420.218 279.591,422.714 L279.591,422.714 Z"
                      id="Shape"></path>
                <path d="M417.887,172.047 C419.197,175.995 421.698,179.218 424.857,181.445 C429.541,184.744 435.67,185.854 441.519,183.92 C451.325,180.664 456.638,170.09 453.394,160.289 C451.916,155.821 450.276,151.339 448.529,146.975 C444.693,137.385 433.815,132.716 424.22,136.552 C414.635,140.386 409.964,151.267 413.803,160.86 C415.271,164.528 416.646,168.293 417.887,172.047 L417.887,172.047 Z"
                      id="Shape"></path>
                <path d="M340.36,396.013 C337.061,398.191 333.656,400.299 330.226,402.274 C321.277,407.436 318.212,418.875 323.372,427.82 C324.773,430.253 326.639,432.242 328.788,433.762 C334.557,437.821 342.392,438.429 348.915,434.671 C352.993,432.319 357.048,429.817 360.977,427.219 C369.591,421.528 371.962,409.925 366.268,401.307 C360.575,392.686 348.977,390.318 340.36,396.013 L340.36,396.013 Z"
                      id="Shape"></path>
                <path d="M465.022,224.279 C464.615,213.957 455.921,205.923 445.596,206.326 C435.284,206.733 427.244,215.43 427.649,225.748 C427.804,229.693 427.844,233.697 427.753,237.638 C427.608,244.111 430.774,249.881 435.694,253.349 C438.625,255.413 442.182,256.662 446.039,256.75 C456.361,256.979 464.915,248.792 465.144,238.465 C465.247,233.756 465.208,228.985 465.022,224.279 L465.022,224.279 Z"
                      id="Shape"></path>
                <path d="M414.835,346.816 C406.558,340.606 394.848,342.292 388.649,350.554 C386.275,353.718 383.775,356.843 381.215,359.852 C374.525,367.712 375.47,379.518 383.33,386.213 C383.778,386.593 384.231,386.942 384.701,387.27 C392.515,392.779 403.375,391.513 409.693,384.099 C412.75,380.509 415.73,376.776 418.567,372.997 C424.767,364.735 423.089,353.017 414.835,346.816 L414.835,346.816 Z"
                      id="Shape"></path>
                <path d="M442.325,279.213 C432.47,276.123 421.975,281.609 418.887,291.464 C417.705,295.229 416.395,299.012 414.981,302.717 C411.876,310.873 414.851,319.847 421.671,324.656 C422.922,325.535 424.3,326.28 425.797,326.846 C435.446,330.528 446.251,325.687 449.929,316.034 C451.608,311.629 453.166,307.128 454.575,302.652 C457.66,292.795 452.178,282.303 442.325,279.213 L442.325,279.213 Z"
                      id="Shape"></path>
                <path d="M197.999,425.402 C181.279,422.4 165.24,417.288 150.031,410.158 C149.851,410.064 149.69,409.957 149.501,409.871 C145.917,408.184 142.339,406.377 138.871,404.489 C138.859,404.475 138.837,404.466 138.818,404.458 C132.455,400.954 126.245,397.077 120.212,392.83 C32.24,330.86 11.088,208.872 73.062,120.901 C86.538,101.779 102.846,85.826 121.027,73.182 C121.251,73.026 121.475,72.871 121.697,72.714 C185.764,28.57 272.757,25.595 340.786,70.957 L326.175,92.068 C322.113,97.944 324.612,102.226 331.723,101.586 L395.19,95.904 C402.31,95.264 406.568,89.105 404.653,82.229 L387.61,20.823 C385.702,13.939 380.817,13.115 376.751,18.99 L362.106,40.151 C312.182,6.638 252.303,-6.141 192.87,4.165 C186.884,5.201 180.982,6.469 175.161,7.945 C175.116,7.953 175.08,7.958 175.044,7.966 C174.819,8.021 174.591,8.094 174.372,8.155 C123.122,21.316 78.407,51.207 46.5,93.855 C46.231,94.174 45.954,94.486 45.7,94.833 C44.639,96.262 43.586,97.724 42.555,99.186 C40.869,101.582 39.207,104.038 37.617,106.494 C37.418,106.79 37.266,107.091 37.092,107.39 C10.762,148.191 -1.938,195.361 0.24,243.383 C0.245,243.541 0.236,243.7 0.24,243.862 C0.451,248.553 0.823,253.309 1.328,257.991 C1.355,258.293 1.422,258.579 1.473,258.881 C1.995,263.589 2.65,268.308 3.471,273.026 C11.815,321.164 34.523,364.481 68.55,398.186 C68.629,398.265 68.711,398.351 68.791,398.433 C68.819,398.464 68.85,398.48 68.877,398.509 C78.019,407.526 87.963,415.866 98.67,423.407 C126.69,443.151 157.891,456.202 191.399,462.215 C201.566,464.042 211.278,457.274 213.102,447.112 C214.925,436.943 208.163,427.223 197.999,425.402 L197.999,425.402 Z"
                      id="Shape"></path>
                <path d="M221.124,82.198 C212.761,82.198 205.987,88.978 205.987,97.329 L205.987,248.076 L343.857,319.347 C346.076,320.496 348.452,321.037 350.79,321.037 C356.266,321.037 361.555,318.055 364.244,312.852 C368.079,305.426 365.177,296.303 357.751,292.468 L236.244,229.65 L236.244,97.329 C236.243,88.978 229.477,82.198 221.124,82.198 L221.124,82.198 Z"
                      id="Shape"></path>
            </g>
        </g>
    </g>
</svg>