<svg width="274px" height="56px" viewBox="9 0 274 56" version="1.1" xmlns="http://www.w3.org/2000/svg" xmlns:xlink="http://www.w3.org/1999/xlink">
    <!-- Generator: Sketch 40.3 (33839) - http://www.bohemiancoding.com/sketch -->
    <desc>Created with Sketch.</desc>
    <defs></defs>
    <g id="Call_of_Duty_logo" stroke="none" stroke-width="1" fill="none" fill-rule="evenodd" transform="translate(9.000000, 0.000000)">
        <g id="svg3016" fill="#4285F4">
            <g id="#000000ff">
                <path d="M7.1610628,2.74851222 C11.9527536,0.174971601 17.5585024,0.0947762836 22.6943478,1.25396314 C26.585942,2.28192129 30.7157971,4.70965225 32.1850725,9.06936129 C33.6543478,14.0925043 33.3366667,19.4510096 33.343285,24.6491242 C28.677343,24.6272528 24.011401,24.6491242 19.3520773,24.6418337 C19.2528019,20.3258676 19.5638647,15.98803 19.1601449,11.6866448 C19.2461836,8.71212761 14.4611111,8.73399906 14.5272947,11.7085163 C14.0242995,18.4740848 14.4081643,25.2833963 14.2890338,32.0708363 C14.4015459,36.4013834 14.0044444,40.7902544 14.62657,45.0843491 C15.0104348,46.8049031 16.9694686,46.9361318 18.2071014,46.3528932 C19.1601449,45.6019734 19.18,44.224072 19.2792754,43.0648852 C19.4314976,39.8424915 19.3123671,36.6200979 19.3520773,33.3977042 C24.0246377,33.3831233 28.6905797,33.3904138 33.3631401,33.3904138 C33.2241546,38.2823281 33.621256,43.4877332 31.7548792,48.0588663 C28.6574879,53.7089909 22.197971,55.8305215 16.5061836,55.6336785 C11.4894686,55.5826451 5.7447343,54.3068105 2.62748792,49.5461249 C0.397101449,45.6967497 0.476521739,40.8996116 0.297826087,36.4961597 C0.330917874,28.688052 0.0595652174,20.8653634 0.549323671,13.0718367 C0.754492754,8.58818939 3.54743961,4.62945693 7.1610628,2.74851222 L7.1610628,2.74851222 Z"
                      id="path3019"></path>
                <path d="M40.8749758,1.51642054 C47.6521739,1.41435377 54.4359903,1.42164425 61.2131884,1.51642054 C63.7877295,19.2031332 66.5409662,36.8606838 69.1618357,54.540106 C64.8003382,54.525525 60.4388406,54.540106 56.077343,54.525525 C55.6934783,51.2156456 55.4088889,47.8911852 54.9389855,44.5885962 C53.3836715,44.6177581 51.8217391,44.6177581 50.2664251,44.6104676 C50.5443961,41.6505314 50.8488406,38.6905952 51.1400483,35.7306589 C52.0997101,35.7306589 53.0527536,35.7233684 54.0124155,35.7233684 C53.1387923,28.1485562 52.4835749,20.5372916 51.431256,12.9916413 C50.0678744,26.8581407 48.4265217,40.6881876 46.9307729,54.540106 C42.5560386,54.5328155 38.174686,54.5328155 33.7999517,54.5328155 C36.1296135,36.8606838 38.5916425,19.2031332 40.8749758,1.51642054 L40.8749758,1.51642054 Z"
                      id="path3021"></path>
                <path d="M71.5576812,1.46538715 C76.1971498,1.45080619 80.8432367,1.45809667 85.4893237,1.45809667 C85.495942,15.6016344 85.4893237,29.7378816 85.495942,43.8814193 C88.3352174,43.8960003 91.1744928,43.8887098 94.0137681,43.8887098 C94.0270048,47.4391752 94.0203865,50.9823501 94.0203865,54.5328155 C86.5350242,54.540106 79.0496618,54.525525 71.5642995,54.5328155 C71.5510628,36.8461029 71.5642995,19.1520998 71.5576812,1.46538715 L71.5576812,1.46538715 Z"
                      id="path3023"></path>
                <path d="M97.3295652,1.46538715 C101.982271,1.45080619 106.641594,1.45809667 111.300918,1.45809667 C111.314155,15.6016344 111.300918,29.7378816 111.307536,43.8814193 C114.120338,43.8960003 116.93314,43.8887098 119.745942,43.8887098 C119.75256,47.4391752 119.75256,50.9823501 119.75256,54.5328155 L97.3361836,54.5328155 C97.3229469,36.8461029 97.3361836,19.1520998 97.3295652,1.46538715 L97.3295652,1.46538715 Z"
                      id="path3025"></path>
                <path d="M137.07942,1.46538715 C143.234493,1.41435377 149.396184,1.46538715 155.544638,1.76429697 C158.781014,2.01946389 162.169614,2.26734032 165.055217,4.06808971 C167.656232,5.78864378 169.251256,9.04748984 169.277729,12.3792407 C169.701304,21.6089927 169.456425,30.8679065 169.482899,40.1049489 C169.31744,43.9178717 169.681449,48.3504856 167.173092,51.3906172 C164.380145,54.2047437 160.36942,54.3432629 156.788889,54.5036536 C150.223478,54.5838489 143.651449,54.5036536 137.07942,54.5328155 C137.072802,36.8461029 137.07942,19.1520998 137.07942,1.46538715 L137.07942,1.46538715 Z M151.050773,10.5930723 C151.057391,22.2432647 151.057391,33.8861666 151.050773,45.536359 C152.381063,45.2155778 154.40628,45.5144876 154.995314,43.7793525 C155.81599,39.9518488 155.379179,35.9566639 155.491691,32.0489648 C155.379179,25.6625014 155.73657,19.2468761 155.286522,12.8677031 C155.094589,10.5712009 152.59285,10.6659771 151.050773,10.5930723 L151.050773,10.5930723 Z"
                      id="path3027"></path>
                <path d="M172.970773,1.46538715 C177.603623,1.45080619 182.236473,1.46538715 186.869324,1.45809667 C186.875942,14.3476712 186.869324,27.2372458 186.869324,40.1268204 C186.895797,41.8327935 186.862705,43.5533476 187.153913,45.2374492 C187.3657,47.1694273 190.456473,47.0819415 190.588841,45.1426729 C190.899903,43.4804427 190.866812,41.7744696 190.886667,40.090368 C190.87343,27.2153744 190.893285,14.3403808 190.87343,1.46538715 C195.50628,1.4435157 200.13913,1.46538715 204.778599,1.45809667 C204.765362,13.8519184 204.818309,26.2457401 204.752126,38.6322713 C204.606522,42.0442175 204.950676,45.7988164 203.110773,48.7660432 C200.920097,52.8122614 196.664493,54.8681777 192.547874,55.3493496 C187.332609,56.0054931 181.660676,55.3274782 177.29256,51.8717891 C174.545942,49.7210965 173.109758,46.0175309 173.14285,42.3577083 C172.811932,28.7317949 173.043575,15.098591 172.970773,1.46538715 L172.970773,1.46538715 Z"
                      id="path3029"></path>
                <path d="M207.776715,1.45809667 L238.373382,1.45809667 C238.38,5.00856206 238.373382,8.55173697 238.38,12.1022024 C235.613527,12.1022024 232.847053,12.0949119 230.087198,12.1094929 L230.087198,54.5328155 C225.414638,54.5328155 220.742077,54.540106 216.069517,54.525525 L216.069517,12.1094929 C213.31628,12.1022024 210.563043,12.0949119 207.809807,12.1094929 C207.750242,8.55902746 207.783333,5.00856206 207.776715,1.45809667 L207.776715,1.45809667 Z"
                      id="path3031"></path>
                <path d="M240.881739,1.45809667 C245.170435,1.51642054 249.45913,1.33415845 253.747826,1.55287295 C256.381932,11.0815347 259.260918,20.5227106 261.987681,30.0222105 C262.616425,32.3697461 263.648889,34.6662483 263.582705,37.1668841 C263.549614,43.0503042 263.576087,48.9337243 263.56285,54.8171443 C259.267536,54.8244348 254.978841,54.8244348 250.683527,54.8171443 C250.683527,49.1743102 250.663671,43.5314761 250.696763,37.8813515 C250.71,36.6128074 250.637198,35.3223919 250.273188,34.1048811 C247.12285,23.2347705 244.018841,12.3427883 240.881739,1.45809667 L240.881739,1.45809667 Z"
                      id="path3033"></path>
                <path d="M260.928744,1.46538715 C265.190966,1.45080619 269.453188,1.46538715 273.715411,1.45809667 C270.710676,11.5043827 267.745652,21.5652498 264.740918,31.6115358 C262.834831,24.9042911 260.697101,18.2626608 258.96971,11.5043827 C259.37343,8.11430797 260.306618,4.8190095 260.928744,1.46538715 L260.928744,1.46538715 Z"
                      id="path3035"></path>
                <path d="M118.164155,14.1872806 C120.612947,12.9989318 124.279517,14.1508282 124.683237,17.4023838 C124.954589,21.3246638 124.981063,25.3052677 124.656763,29.2275478 C123.915507,33.740357 117.065507,33.951781 115.986715,29.577491 C115.457246,26.0707685 115.755072,22.4619792 115.741836,18.9188043 C115.662415,17.0014072 116.476473,14.9382004 118.164155,14.1872806 L118.164155,14.1872806 Z M119.831981,16.6952069 C119.540773,21.0330445 119.659903,25.3927535 119.759179,29.7378816 L120.692367,29.4025194 C121.109324,25.400044 120.983575,21.2955019 120.778406,17.2784455 C120.546763,17.1326359 120.070242,16.8410165 119.831981,16.6952069 L119.831981,16.6952069 Z"
                      id="path3037"></path>
                <path d="M126.132657,14.1508282 C128.243913,14.1435377 130.348551,14.1362472 132.453188,14.1508282 C132.44657,15.3537579 132.439952,16.5639782 132.439952,17.7741984 C131.586184,17.7814889 130.732415,17.7887794 129.878647,17.7960699 C129.878647,18.9552567 129.872029,20.1144436 129.872029,21.2736304 C130.63314,21.2809209 131.40087,21.2882114 132.175217,21.3027924 C132.175217,22.4109458 132.175217,23.5190993 132.181836,24.6272528 C131.407488,24.6345433 130.639758,24.6418337 129.878647,24.6491242 C129.878647,27.2226648 129.872029,29.788915 129.878647,32.3624556 C128.627778,32.3624556 127.383527,32.3697461 126.139275,32.3770366 C126.132657,26.2967735 126.139275,20.2238008 126.132657,14.1508282 L126.132657,14.1508282 Z"
                      id="path3039"></path>
            </g>
        </g>
    </g>
</svg>