<svg width="218px" height="54px" viewBox="0 0 218 54" version="1.1" xmlns="http://www.w3.org/2000/svg" xmlns:xlink="http://www.w3.org/1999/xlink">
    <!-- Generator: Sketch 40.3 (33839) - http://www.bohemiancoding.com/sketch -->
    <desc>Created with Sketch.</desc>
    <defs></defs>
    <g id="counter-strike-global-offensive" stroke="none" stroke-width="1" fill="none" fill-rule="evenodd">
        <g id="Group" fill="#4285F4">
            <g id="#231f20ff">
                <path d="M122.57754,0 L123.916302,0 C124.847744,0.388706849 125.743247,0.927161419 126.55489,1.53730373 C126.815454,2.70501734 127.270693,3.94760481 126.876851,5.14240045 C126.541412,5.47216405 126.086173,5.60757422 125.68185,5.80989295 C125.729769,6.27028754 125.800152,6.727496 125.867539,7.18470447 C126.631262,7.11620285 127.372523,6.9027327 128.122768,6.74820579 C128.226095,6.27347366 128.251553,5.75732194 128.53458,5.35427754 C128.595977,5.67607584 128.645394,6.00106025 128.684329,6.32763773 C129.085658,6.57615522 129.475007,6.92822167 129.973673,6.87246454 C133.118415,6.87565066 136.264654,6.86290618 139.407898,6.8740576 C139.75382,6.84538251 139.918545,7.23568242 140.156646,7.43640808 C140.164134,6.72590294 140.161139,6.0153978 140.191089,5.30489266 C140.283934,5.30807878 140.469623,5.3112649 140.562468,5.31285796 C140.581935,5.93733782 140.519041,6.57774828 140.682268,7.18629753 C140.857475,7.22931017 141.037174,7.24205466 141.218371,7.26595057 C141.227356,7.50968888 141.234844,7.75342719 141.248321,7.99875857 C142.214206,8.02902672 143.190574,8.09752834 144.148971,7.92229165 C144.792894,7.81874269 145.445803,7.88883737 146.095716,7.89043043 C146.106198,8.13416874 146.127163,8.37631399 146.167596,8.61845924 C145.364938,8.68058861 144.553295,8.7379388 143.75513,8.59615639 C142.476268,8.43047806 141.198904,8.71882207 139.92154,8.64235515 C139.878112,8.82715021 139.83768,9.01194527 139.797247,9.19674033 C138.569301,9.21107788 137.341354,9.18877503 136.114905,9.19514727 C135.707586,9.18399584 135.259834,9.27798644 135.002265,9.64279737 C134.641368,10.1223087 134.2041,10.5317253 133.856681,11.0223881 C133.744368,11.9224675 134.075315,12.7954648 134.265497,13.6589038 C133.97648,13.7704181 133.685966,13.8755601 133.401442,13.9902605 C133.10943,14.9636206 133.224737,16.2093942 132.387637,16.8912243 C131.924911,17.2608144 131.516094,17.721209 130.987478,17.984064 C130.602622,18.1688591 130.189313,17.9760987 129.802959,17.9155624 C128.36087,17.6829755 127.165868,16.7398835 125.878022,16.0899147 C125.794162,16.4610978 125.69982,16.8275018 125.605477,17.1954989 C125.996324,17.4647262 126.50098,17.6941269 126.629765,18.2230232 C126.827434,18.9972507 126.662709,19.8097118 126.634257,20.5982769 C126.57286,21.3215265 126.553392,22.0495553 126.489,22.772805 C126.426105,23.4753448 126.044244,24.0791149 125.6519,24.6255347 C125.285013,24.5299511 124.925614,24.4168438 124.56322,24.3148879 C124.172374,25.207002 124.49733,26.3157723 125.141253,26.9800787 C126.815454,28.9172407 127.722937,31.4103809 128.573514,33.8397987 C128.718772,34.3527643 129.214443,34.657039 129.298303,35.1970866 C129.439067,35.7705885 129.638234,36.3456835 129.591812,36.9478605 C129.527419,38.0040598 129.45554,39.0602592 129.355207,40.1132724 C129.286323,40.8859069 129.016773,41.6569484 129.175508,42.4375482 C129.29381,43.0731795 129.367187,43.7454512 129.148553,44.3683379 C128.853546,45.1505308 128.856541,46.0060045 128.852049,46.8359892 C128.865526,47.3824091 128.893979,47.982993 129.250383,48.4163056 C129.672677,48.9690977 130.084488,49.5425996 130.589144,50.0141456 C131.2136,50.4490512 132.073163,50.4522374 132.586804,51.0814964 C132.748533,51.4255975 132.633226,51.8270489 132.628734,52.1950459 C131.006946,52.4563079 129.310283,52.4754247 127.734917,51.9369701 C126.845404,51.6295093 125.864544,52.1568125 125.013966,51.6374746 C125.060389,50.5557863 125.305978,49.499587 125.665377,48.4895864 C125.813629,47.7360686 125.6519,46.9554688 125.636925,46.1923926 C125.626442,45.5328654 125.307476,44.9498052 125.184681,44.3157669 C124.832769,42.955293 124.732437,41.5390619 124.672537,40.1339822 C124.594667,39.4441868 125.144248,38.9232559 125.166711,38.2493912 C125.282018,37.6519934 125.196661,37.0386649 124.849242,36.5448161 C124.245751,36.5256993 123.43261,36.6945638 123.094176,36.0047684 C122.387358,34.892812 121.700008,33.7649249 120.994687,32.6529684 C120.749098,32.1734571 120.159084,32.2865644 119.75476,32.0762804 C119.393864,31.7226209 119.214164,31.2223998 118.98954,30.7715635 C118.85776,31.2877152 118.67806,31.80546 118.318661,32.1957599 C117.752608,32.8011231 117.548948,33.6422592 117.255439,34.4101145 C117.048785,34.9644997 116.863095,35.5332224 116.78822,36.1258411 C116.708853,36.5734912 116.690883,37.0976082 116.313514,37.3907314 C115.759441,37.8367884 115.561771,38.5887132 115.055617,39.0793759 C114.678248,39.4617105 114.447634,39.9826414 114.323342,40.5131307 C114.28291,40.992642 114.413192,41.4785256 114.299382,41.9516646 C114.094225,42.8182897 113.644976,43.5829589 113.315527,44.397013 C113.081918,44.9689219 112.96062,45.5854364 112.704549,46.1477869 C112.533834,46.541273 112.096565,46.6687178 111.856966,46.9984814 C111.162128,48.269744 110.940498,49.8022685 111.189083,51.2439886 C111.38825,51.8158975 111.533507,52.4148883 111.410712,53.0298098 C110.983926,53.0919392 110.560134,53.1668131 110.13185,53.2082326 L108.808064,53.2082326 C108.46364,53.1317657 108.108733,53.0744155 107.794259,52.902365 C107.559152,52.1201721 107.598087,51.2631053 107.809234,50.4793194 C108.119216,49.3004544 108.400745,48.113624 108.680777,46.9283867 C108.869461,46.3469195 108.42171,45.8259886 108.462142,45.2445214 C108.417217,44.3874547 108.915884,43.6801357 109.27678,42.9648513 C109.615214,42.3292201 109.495415,41.5629578 109.730521,40.8922792 C110.262133,39.4362215 111.266952,38.2509843 111.865951,36.829974 C112.050143,36.2516929 111.850976,35.6367714 111.886916,35.0409666 C111.931841,33.9114865 112.14149,32.7963439 112.324185,31.6843874 C112.385582,31.255854 112.515864,30.8034247 112.360125,30.3812636 C112.193903,29.8778564 112.077098,29.3425879 112.142988,28.8057264 C112.211872,28.3118776 111.934836,27.8212148 112.108545,27.3385174 C112.199892,26.9291007 112.553302,26.6981069 112.836328,26.4432172 C112.887243,24.7609449 112.312205,23.1073477 112.553302,21.4298547 C112.828841,21.0666368 113.2721,20.9360058 113.656956,20.7528038 C113.0924,20.628545 112.527844,20.5026932 111.966283,20.3704692 C111.943821,19.6918253 112.030675,19.0195536 112.163953,18.3568403 C112.370607,17.3229438 112.256797,16.2539999 112.411039,15.2137312 C112.434999,14.9492831 112.706046,14.8600717 112.920188,14.8505133 C113.432332,14.8106868 113.948968,14.7851978 114.452127,14.6561599 C114.302377,13.3418847 114.178085,12.0005274 114.456619,10.6926245 C114.726168,9.14894851 115.376082,7.58456274 116.593546,6.62872623 C117.432144,6.02654922 118.643618,5.67129665 119.519653,6.3897671 C119.591533,6.33719609 119.735293,6.23364714 119.807172,6.18266919 C119.298024,4.72183238 119.410336,3.03318787 120.218984,1.7173196 C120.74161,0.820426342 121.658078,0.310646867 122.57754,0 L122.57754,0 Z M130.800291,10.050621 C130.755366,10.4329556 130.644552,10.812104 130.297132,10.995306 C130.755366,10.9634448 131.21959,10.9650379 131.671834,10.8598959 C131.661351,10.5795172 131.652366,10.3007315 131.641884,10.0203528 C131.358857,10.026725 131.078825,10.0362834 130.800291,10.050621 L130.800291,10.050621 Z M129.850879,11.1307162 C129.811944,11.1848803 129.732576,11.2900223 129.693642,11.3441864 C129.765521,11.8619311 130.129413,12.2856853 130.372007,12.7349285 C130.725416,12.2060323 131.083318,11.6771361 131.420254,11.1354954 C130.897628,11.1100064 130.372007,11.073366 129.850879,11.1307162 L129.850879,11.1307162 Z"
                      id="Shape"></path>
                <path d="M1.21147431,29.0064521 C1.79999027,28.5237547 2.55772328,28.3692278 3.28550636,28.3915306 C5.73540992,28.4106473 8.18381598,28.3835653 10.632222,28.4042751 C12.1342106,28.4042751 13.4325397,29.7727144 13.5343694,31.3514377 C10.1275659,31.3912642 6.71776734,31.3307279 3.31096379,31.3785197 C3.30048132,33.7840416 3.30197882,36.1879704 3.31096379,38.5918993 C6.71027986,38.6396911 10.1110934,38.5950854 13.511907,38.6126091 C13.502922,40.2295658 12.1461906,41.6250872 10.635217,41.6282733 C8.23922334,41.6585414 5.84173214,41.6234941 3.44424094,41.6442039 C2.72095035,41.6585414 1.95572986,41.5725161 1.34475146,41.1200869 C0.660395764,40.6692506 0.256071827,39.89343 0,39.1048649 L0,30.8496235 C0.271046787,30.155049 0.615470882,29.449323 1.21147431,29.0064521 L1.21147431,29.0064521 Z"
                      id="Shape"></path>
                <path d="M17.5791063,28.4488808 C17.8546456,28.3994959 18.1346773,28.3963098 18.4132116,28.3931237 C20.9649449,28.4042751 23.5151807,28.3931237 26.0654165,28.3979029 C27.2888708,28.3771931 28.4569177,29.2597488 28.8597441,30.4816265 C29.0544186,31.0232671 29.0379462,31.6111066 29.0364487,32.1798293 C29.0244687,34.3081586 29.0394436,36.4364879 29.0304587,38.5632242 C29.0394436,40.2263797 27.6108324,41.674472 26.0564315,41.6346455 C23.4103559,41.6410178 20.7642804,41.6410178 18.1197024,41.6346455 C16.5653014,41.6776582 15.1336952,40.2263797 15.1456752,38.5632242 C15.1411827,36.2198317 15.1456752,33.8764391 15.1441777,31.5314536 C15.1172228,30.0562792 16.2148874,28.6830607 17.5791063,28.4488808 L17.5791063,28.4488808 Z M18.1706172,31.2717846 C18.1766072,33.7569596 18.1825972,36.2405415 18.1676222,38.7257164 C18.8984003,38.8101486 19.6321734,38.7623568 20.3659465,38.7703221 C22.2468015,38.741647 24.1306516,38.8308584 26.0085116,38.7257164 C25.9935367,36.2405415 25.9995266,33.7569596 26.0055166,31.2717846 C23.3938835,31.2606332 20.7822504,31.2606332 18.1706172,31.2717846 L18.1706172,31.2717846 Z"
                      id="Shape"></path>
                <path d="M31.3470851,28.3708208 C32.2845176,28.4425086 33.2414176,28.8535183 33.7969886,29.6914683 C34.1623777,30.2251437 34.3735246,30.8782986 34.3825096,31.5394189 C34.4034745,33.9449408 34.3630422,36.3504627 34.4004796,38.7559845 C36.9971377,38.768729 39.5982884,38.8037764 42.1949466,38.7384609 C42.2039315,35.2910772 42.1590067,31.8421004 42.2159115,28.3963098 C43.2147414,28.3963098 44.2150687,28.3979029 45.2153961,28.3947167 C45.2648135,31.4613589 45.2183911,34.5295941 45.2378586,37.5962362 C45.2348636,38.3099275 45.2842809,39.0602592 44.9952642,39.7277517 C44.5385279,40.8763485 43.4019284,41.6553553 42.229389,41.6346455 C39.7839779,41.64739 37.3385668,41.6298663 34.8931558,41.6426108 C34.4513944,41.6394247 34.0021456,41.6457969 33.5708667,41.5326896 C32.5675444,41.2650554 31.7274491,40.3968372 31.4534073,39.3342656 C31.3111452,38.8228931 31.3351051,38.2828455 31.3336076,37.7555423 C31.3485826,34.6267708 31.3201302,31.4995923 31.3470851,28.3708208 L31.3470851,28.3708208 Z"
                      id="Shape"></path>
                <path d="M47.7776119,28.3771931 C49.4982349,28.2816094 51.3191901,28.7850166 52.5770868,30.0913265 C54.7005362,32.2419587 56.852438,34.3591366 58.9803799,36.5065826 C59.1825419,36.7120875 59.4026738,36.8952895 59.6272982,37.0737123 C59.705168,35.130178 59.6168158,33.1802715 59.6692281,31.2351442 C59.7905253,29.6293389 61.1846941,28.3564833 62.6851852,28.3756 C62.6986626,32.7820063 62.6762002,37.1884127 62.6971652,41.5932259 C61.81514,41.6760651 60.9286223,41.6378316 60.0465971,41.6346455 C59.7396104,41.6792512 59.5434384,41.4052448 59.336784,41.2172636 C56.9392928,38.7766943 54.5283241,36.3520557 52.1233455,33.9194518 C51.6875741,33.4749878 51.2592902,33.0225585 50.790574,32.6195141 C50.7516391,35.6208408 50.7965639,38.6221674 50.7681115,41.6234941 C49.7677841,41.6489831 48.7674568,41.6489831 47.7671294,41.6234941 C47.7596419,37.2091225 47.7401745,32.7915647 47.7776119,28.3771931 L47.7776119,28.3771931 Z"
                      id="Shape"></path>
                <path d="M65.1290988,28.6591648 C65.7340872,28.3309943 66.4319203,28.3994959 67.0893211,28.3947167 C70.6383868,28.402682 74.1874524,28.3931237 77.7350206,28.3994959 C77.7290306,29.186468 77.4325264,29.9622886 76.9113978,30.521453 C76.4142291,31.0344186 75.7089084,31.2685985 75.0260502,31.2654124 C74.0721452,31.2749708 73.1197378,31.2574471 72.1658328,31.2638193 C72.1074304,34.711203 72.1538528,38.1585867 72.1433703,41.6059704 C71.125073,41.6521692 70.0992882,41.6776582 69.0824884,41.5932259 C69.0794934,38.1490284 69.1244183,34.7048308 69.0615234,31.2622263 C67.2450607,31.254261 65.428598,31.2909014 63.6121352,31.2462957 C63.6645476,30.1885033 64.2066412,29.1211525 65.1290988,28.6591648 L65.1290988,28.6591648 Z"
                      id="Shape"></path>
                <path d="M78.7937503,28.3963098 C82.8250097,28.4074612 86.8562691,28.3819722 90.8875285,28.4090543 C90.8246337,29.0972566 90.6269642,29.7870519 90.1986803,30.3207273 C89.7134916,30.9340557 88.9512661,31.2574471 88.2055131,31.2638193 C86.0790687,31.2765638 83.9541218,31.2510748 81.8276774,31.2733777 C81.8366623,32.0332677 81.8351648,32.7931578 81.8306723,33.5530478 C84.3764157,33.5673853 86.922159,33.5307449 89.4679023,33.5705715 C89.4738923,35.0027332 88.4046801,36.3998475 87.0209937,36.4683492 C85.3003707,36.5049896 83.5782503,36.465163 81.8576273,36.4826867 C81.8276774,37.2409837 81.8276774,38.0008737 81.8606223,38.7591707 C84.8750818,38.7846596 87.8895414,38.767136 90.904001,38.7655429 C90.9174785,39.6974835 90.4712246,40.6166796 89.7644065,41.1615064 C89.2283029,41.5725161 88.5454447,41.6585414 87.9015214,41.6426108 C84.8645994,41.6187149 81.8261799,41.6680998 78.7892578,41.6187149 C78.7907553,37.2107155 78.7802729,32.8043092 78.7937503,28.3963098 L78.7937503,28.3963098 Z"
                      id="Shape"></path>
                <path d="M92.7204637,28.3963098 C95.3081369,28.3979029 97.8943126,28.3979029 100.481986,28.3979029 C101.542213,28.4042751 102.627898,28.3373665 103.658175,28.6575718 C104.320068,28.8598905 104.956504,29.2820516 105.273973,29.9527302 C105.831042,31.0790243 105.748679,32.3932995 105.717232,33.6231425 C105.65883,34.422859 105.619895,35.3245315 105.061329,35.9346738 C104.573145,36.5495953 103.891784,36.9383021 103.180474,37.1820404 C104.433878,38.8356376 105.793604,40.3968372 107.069471,42.0313177 C105.967314,42.040876 104.866654,42.0360969 103.765995,42.0376899 C103.331721,42.0472483 102.855517,41.9723744 102.55452,41.6043774 C101.958517,40.9082098 101.438886,40.1419475 100.871335,39.4186979 C99.6913079,37.8097064 98.4139437,36.2771819 97.2923192,34.6203986 C98.707453,34.580572 100.122587,34.6458875 101.537721,34.5949096 C101.940547,34.5598622 102.503605,34.4690578 102.59046,33.9544991 C102.713255,33.2678899 102.72823,32.5398611 102.57848,31.858031 C102.434721,31.3227626 101.811762,31.308425 101.384976,31.2717846 C99.5235883,31.2526679 97.6636982,31.2765638 95.8038081,31.2590402 C95.7274358,34.7000516 95.7768532,38.1442492 95.7798482,41.5852606 C94.7615508,41.6919957 93.735766,41.6346455 92.7144737,41.6187149 C92.7174687,37.2107155 92.7054888,32.8043092 92.7204637,28.3963098 L92.7204637,28.3963098 Z"
                      id="Shape"></path>
                <path d="M134.518574,30.4832195 C134.924395,29.264528 136.089447,28.3787861 137.309906,28.3994959 C139.608563,28.3915306 141.908717,28.4042751 144.207373,28.3947167 C144.873759,28.3947167 145.571592,28.3469249 146.196048,28.6464203 C147.187391,29.0797329 147.904691,30.1104433 148.008018,31.2447026 C144.48441,31.2893083 140.959304,31.2590402 137.434199,31.2590402 C137.368309,32.0093718 137.390771,32.7628896 137.414731,33.5148143 C140.074284,33.55942 142.733837,33.5084421 145.39339,33.5371172 C146.811519,33.5626062 148.114341,34.8067867 148.232643,36.3217876 C148.271578,37.1215041 148.267085,37.9275929 148.23414,38.7289025 C148.151778,40.2677993 146.857941,41.594819 145.408365,41.6266802 C142.862622,41.6585414 140.316879,41.6234941 137.771135,41.6426108 C137.04485,41.6649137 136.281127,41.5645508 135.673143,41.1057493 C134.91541,40.5911907 134.461669,39.6942974 134.331387,38.7639499 C137.956825,38.7113788 141.58376,38.8149278 145.207701,38.7129719 C145.188233,37.981757 145.231661,37.248949 145.188233,36.5193271 L145.093891,36.4285226 C142.452308,36.4014406 139.809227,36.4428602 137.167644,36.412592 C135.655173,36.3759516 134.301437,34.9278593 134.343367,33.3061234 C134.374814,32.3662174 134.22806,31.3896711 134.518574,30.4832195 L134.518574,30.4832195 Z"
                      id="Shape"></path>
                <path d="M148.849611,31.2383304 C148.906516,29.8587397 149.893366,28.4775559 151.25459,28.4106473 C154.90848,28.3756 158.563868,28.4154265 162.217758,28.3915306 C162.292633,29.6213736 161.470508,30.8735194 160.329416,31.1586773 C159.251219,31.3785197 158.141574,31.2192136 157.0499,31.2590402 C156.975025,34.6984585 157.022945,38.1442492 157.027437,41.5852606 C156.013632,41.6840304 154.99234,41.6505761 153.977038,41.6059704 C153.968053,38.1585867 154.012978,34.70961 153.956073,31.2638193 C152.25342,31.2478887 150.550767,31.3004597 148.849611,31.2383304 L148.849611,31.2383304 Z"
                      id="Shape"></path>
                <path d="M163.417253,28.3994959 C165.998936,28.3947167 168.580619,28.3994959 171.1638,28.3979029 C172.297404,28.4042751 173.468446,28.3294012 174.560121,28.7292595 C175.216024,28.9602533 175.78657,29.474812 176.059115,30.156642 C176.497881,31.1921316 176.423006,32.355066 176.406534,33.4622433 C176.370594,34.1440734 176.334654,34.8561716 176.05612,35.4838375 C175.579916,36.3393112 174.741318,36.8889172 173.86678,37.1852265 C175.040817,38.6986344 176.364604,40.0750389 177.514681,41.6075635 C176.446966,41.6665067 175.376256,41.6314594 174.308542,41.6378316 C173.814368,41.6521692 173.284254,41.5342827 172.965288,41.1025632 C171.912548,39.7771366 170.885266,38.427814 169.843008,37.092829 C169.22604,36.2644374 168.538689,35.494989 167.977128,34.6219916 C169.33985,34.5885373 170.702571,34.6251777 172.06679,34.6124333 C172.520531,34.5996888 173.168947,34.528001 173.267782,33.9401616 C173.387582,33.2583315 173.416034,32.5334888 173.263289,31.856438 C173.115037,31.3227626 172.495074,31.306832 172.06679,31.2717846 C170.209895,31.254261 168.353,31.2733777 166.496105,31.2622263 C166.428717,34.7048308 166.476637,38.1506214 166.473642,41.594819 C165.455345,41.674472 164.431058,41.6537622 163.41276,41.6059704 C163.420248,37.2043433 163.411263,32.8011231 163.417253,28.3994959 L163.417253,28.3994959 Z"
                      id="Shape"></path>
                <path d="M179.8358,28.3963098 C180.83463,28.3963098 181.834957,28.3979029 182.835284,28.3947167 C182.877214,32.8027161 182.851757,37.2139016 182.847264,41.6234941 C181.837952,41.64739 180.82864,41.6521692 179.820825,41.620308 C179.813337,37.2123086 179.783387,32.8027161 179.8358,28.3963098 L179.8358,28.3963098 Z"
                      id="Shape"></path>
                <path d="M186.275033,28.3963098 C187.273863,28.3963098 188.27419,28.3979029 189.274517,28.3947167 C189.33292,30.0913265 189.253552,31.7911225 189.316447,33.4877323 C189.535082,33.427196 189.771686,33.3778111 189.954381,33.2169119 C191.857698,31.6381886 193.731066,30.0100804 195.652353,28.4600322 C197.113909,28.3102845 198.605415,28.4409155 200.080449,28.3963098 C197.826717,30.599513 195.450191,32.6561545 193.18448,34.8434271 C195.339376,36.6579234 197.515238,38.4437446 199.677622,40.2502756 C200.195756,40.6915535 200.757317,41.0818534 201.211058,41.6043774 C200.081946,41.6792512 198.949839,41.6171218 197.81923,41.6410178 C197.160332,41.6282733 196.417574,41.7493459 195.86949,41.2682415 C193.906273,39.6958905 191.956533,38.1044227 190.0023,36.5193271 C189.807626,36.3377182 189.545564,36.3170084 189.305965,36.280368 C189.27302,38.06141 189.313452,39.8424521 189.286497,41.6234941 C188.277185,41.64739 187.267873,41.6521692 186.260058,41.620308 C186.251073,37.2123086 186.224118,32.8027161 186.275033,28.3963098 L186.275033,28.3963098 Z"
                      id="Shape"></path>
                <path d="M201.615382,28.402682 C205.645144,28.3915306 209.674906,28.3979029 213.704668,28.3994959 C213.700176,29.814134 212.662411,31.1682357 211.299689,31.2494818 C209.09837,31.2909014 206.895554,31.2526679 204.695732,31.2638193 C204.653802,32.0284885 204.638827,32.7979369 204.709209,33.5610131 C207.233988,33.5546408 209.760263,33.5418964 212.286539,33.5657923 C212.328469,35.0282221 211.196362,36.4253365 209.797701,36.4699422 C208.092053,36.5049896 206.386405,36.4619769 204.680757,36.4858728 C204.658294,37.2425767 204.656797,37.9992806 204.682254,38.7543915 C207.692221,38.7878458 210.703686,38.7719152 213.715151,38.7607637 C213.809493,40.2502756 212.566571,41.674472 211.14994,41.6346455 C208.752449,41.6442039 206.354957,41.6346455 203.958964,41.6378316 C203.175773,41.6266802 202.391085,41.6792512 201.61089,41.5932259 C201.625865,37.196378 201.618377,32.79953 201.615382,28.402682 L201.615382,28.402682 Z"
                      id="Shape"></path>
                <path d="M137.255997,46.2911624 C138.012232,46.1541592 138.811895,46.1414147 139.560643,46.3485126 C140.098244,46.4839228 140.108727,47.1577875 140.171621,47.6261474 C139.890092,47.6325196 139.611558,47.6277405 139.333024,47.6277405 C139.220711,47.4270148 139.205736,47.0717622 138.939182,47.0335288 C138.474958,46.9538757 137.98378,46.9315729 137.531536,47.0765414 C137.190107,47.1880557 137.187112,47.6261474 137.172137,47.9367943 C137.172137,48.5469366 137.112237,49.1746026 137.247012,49.7751865 C137.362319,50.2116852 137.877457,50.1766378 138.217389,50.1973476 C138.540848,50.1734517 138.961645,50.2403603 139.187767,49.9328995 C139.291094,49.6748237 139.262641,49.3864797 139.286601,49.1156593 C138.925705,49.1108801 138.566306,49.0981356 138.208404,49.0901703 C138.211399,48.871921 138.212897,48.6520786 138.209902,48.4338293 C138.855322,48.4226778 139.500743,48.4210848 140.147662,48.4386084 C140.104234,49.1650442 140.304899,50.0205179 139.846665,50.6370324 C139.331526,51.0145878 138.657653,50.9572377 138.06165,50.9763544 C137.497093,50.9492724 136.736365,50.9205973 136.481791,50.2722215 C136.198764,49.4326784 136.320062,48.5118892 136.341027,47.6388919 C136.342524,47.0462733 136.658496,46.3899322 137.255997,46.2911624 L137.255997,46.2911624 Z"
                      id="Shape"></path>
                <path d="M142.027019,46.2465567 C142.308548,46.2401845 142.58858,46.2369983 142.873104,46.2322192 C142.937497,47.5305638 142.874602,48.8305014 142.906049,50.1304391 C143.585912,50.1176946 144.265776,50.1113223 144.945639,50.1447766 C144.938151,50.4076317 144.935156,50.6720798 144.933659,50.9381209 C143.964779,50.9349348 142.994402,50.9460862 142.025522,50.9285626 C142.040497,49.3673629 142.037502,47.8061633 142.027019,46.2465567 L142.027019,46.2465567 Z"
                      id="Shape"></path>
                <path d="M147.555775,46.2736387 C148.35993,46.1812412 149.29886,46.0633547 150.002683,46.5731342 C150.498354,47.2772671 150.368072,48.2378828 150.38155,49.0662744 C150.330635,49.6716375 150.350102,50.5350765 149.704681,50.7899663 C148.902023,51.0416699 148.017003,51.0496352 147.21135,50.8186414 C146.625829,50.6609283 146.519507,49.9424579 146.479075,49.4024103 C146.44014,48.5692394 146.41618,47.7058004 146.660272,46.9028978 C146.777077,46.4918881 147.197873,46.3421404 147.555775,46.2736387 L147.555775,46.2736387 Z M147.512347,47.1625667 C147.23531,47.7344755 147.34313,48.4402015 147.322165,49.0694605 C147.365593,49.4231201 147.28323,49.996622 147.705524,50.1145085 C148.253608,50.2116852 148.908013,50.312048 149.396197,49.9615746 C149.611837,49.0503438 149.538459,48.0897281 149.426147,47.1689389 C148.824154,46.9379451 148.096371,46.8598851 147.512347,47.1625667 L147.512347,47.1625667 Z"
                      id="Shape"></path>
                <path d="M152.281872,46.2385914 C153.20433,46.2688596 154.13727,46.1653106 155.053737,46.3055 C155.958225,46.5078187 155.91929,47.9240498 155.329277,48.4816211 C155.880355,48.949981 155.994165,49.789524 155.696163,50.4490512 C155.507479,50.8329789 155.06422,50.912632 154.698831,50.9269695 C153.893178,50.9572377 153.086027,50.9301556 152.281872,50.9381209 C152.239942,49.3721421 152.238445,47.8045702 152.281872,46.2385914 L152.281872,46.2385914 Z M153.092017,47.0223773 C153.095012,47.4190495 153.09651,47.8141286 153.098007,48.2108007 C153.673046,48.218766 154.257069,48.2490342 154.820128,48.0913212 C154.826118,47.7567784 154.995335,47.2326614 154.605986,47.0749483 C154.11331,46.9363521 153.593679,47.0207843 153.092017,47.0223773 L153.092017,47.0223773 Z M153.093515,48.9037822 C153.095012,49.3211642 153.095012,49.736953 153.093515,50.154335 C153.646091,50.1607072 154.212145,50.233988 154.757233,50.0937987 C155.113637,49.8548395 154.93244,49.3450601 154.92645,48.9818422 C154.324457,48.8400598 153.702996,48.8352806 153.093515,48.9037822 L153.093515,48.9037822 Z"
                      id="Shape"></path>
                <path d="M158.803467,46.2529289 C159.221269,46.2369983 159.642065,46.2354053 160.062862,46.2369983 C160.58998,47.7950119 161.087149,49.3641768 161.561855,50.939714 C161.278828,50.9381209 160.997299,50.9381209 160.717267,50.9381209 C160.603458,50.6354394 160.482161,50.33913 160.371346,50.0380415 C159.784327,50.0396346 159.195811,49.9998081 158.611788,50.049193 C158.400641,50.2897452 158.351224,50.6370324 158.235916,50.9333417 C157.948397,50.9365279 157.660878,50.939714 157.376354,50.9429001 C157.79116,49.3593976 158.349726,47.8236869 158.803467,46.2529289 L158.803467,46.2529289 Z M159.438406,46.9984814 C159.216776,47.7918257 158.962202,48.5724256 158.73608,49.3641768 C159.222766,49.3769213 159.71095,49.3769213 160.199134,49.368956 C159.955042,48.5740186 159.72892,47.7743021 159.438406,46.9984814 L159.438406,46.9984814 Z"
                      id="Shape"></path>
                <path d="M163.254026,46.2338122 C163.529565,46.2369983 163.805104,46.2369983 164.083639,46.2385914 C164.113589,47.5353429 164.037216,48.8352806 164.124071,50.1304391 C164.796447,50.1176946 165.471817,50.1161015 166.145691,50.1368113 C166.133711,50.4060386 166.123228,50.6752659 166.115741,50.9460862 C165.160338,50.9301556 164.206433,50.939714 163.252528,50.9381209 C163.242046,49.370549 163.239051,47.8013841 163.254026,46.2338122 L163.254026,46.2338122 Z"
                      id="Shape"></path>
                <path d="M171.809221,46.2577081 C172.575939,46.1860204 173.453471,46.0792853 174.134832,46.541273 C174.663448,47.1816834 174.527176,48.1279616 174.554131,48.9181198 C174.512201,49.577647 174.557126,50.5366696 173.838328,50.8011177 C173.031178,51.0432629 172.13867,51.0560074 171.334515,50.8011177 C170.829858,50.6402185 170.701074,50.0300762 170.662139,49.5441927 C170.603736,48.6759745 170.581274,47.7774882 170.813386,46.934759 C170.933186,46.4711783 171.412384,46.3166514 171.809221,46.2577081 L171.809221,46.2577081 Z M171.822698,47.0781345 C171.479772,47.1864626 171.559139,47.6484503 171.506727,47.9431665 C171.514214,48.636148 171.358474,49.4326784 171.708889,50.0539722 C172.28243,50.2403603 172.989248,50.3088619 173.531341,49.9886567 C173.769443,49.3992241 173.685583,48.7237663 173.696066,48.0976934 C173.651141,47.7711159 173.715533,47.3441756 173.456466,47.1099957 C172.935338,46.9236076 172.348319,46.9299798 171.822698,47.0781345 L171.822698,47.0781345 Z"
                      id="Shape"></path>
                <path d="M176.430494,46.2385914 C177.403866,46.2433706 178.377239,46.229033 179.350611,46.2481498 C179.349113,46.490295 179.350611,46.7324403 179.358098,46.9745855 C178.66326,47.0207843 177.968422,47.0064467 177.273584,47.0096329 C177.264599,47.4238287 177.263101,47.8396176 177.273584,48.2554064 C177.929487,48.2569995 178.58539,48.2506273 179.241294,48.2793024 C179.230811,48.5230407 179.223324,48.768372 179.220329,49.0137034 C178.571913,49.0009589 177.923497,49.0009589 177.276579,49.0232618 C177.261604,49.6604861 177.263101,50.2993035 177.261604,50.9381209 C176.98307,50.9381209 176.70753,50.939714 176.431991,50.9429001 C176.417016,49.3737352 176.420011,47.8061633 176.430494,46.2385914 L176.430494,46.2385914 Z"
                      id="Shape"></path>
                <path d="M181.183546,46.2385914 L184.058739,46.2385914 C184.064729,46.490295 184.070719,46.7435917 184.081201,46.9968884 C183.384865,47.0112259 182.68853,47.0000745 181.995189,47.0207843 C181.996686,47.4286079 181.996686,47.8364314 181.995189,48.244255 C182.65858,48.2601856 183.324965,48.2458481 183.989854,48.295233 C183.979371,48.531006 183.976376,48.766779 183.979371,49.004145 C183.315981,49.0105173 182.651092,48.9786561 181.990697,49.0503438 C182.010164,49.6811959 182.013159,50.3136411 181.968234,50.9444932 C181.704675,50.941307 181.44411,50.941307 181.186541,50.941307 C181.137124,49.3753282 181.141616,47.8045702 181.183546,46.2385914 L181.183546,46.2385914 Z"
                      id="Shape"></path>
                <path d="M185.825784,46.2385914 C186.820121,46.2385914 187.814459,46.2385914 188.810294,46.2401845 C188.810294,46.488702 188.814786,46.7372194 188.823771,46.98733 C188.092993,47.0175982 187.363712,46.9984814 186.635929,47.0207843 C186.638924,47.4142703 186.641919,47.8077563 186.644914,48.2012424 C187.32927,48.1869048 188.015123,48.1821256 188.700976,48.2123938 C188.686001,48.4322362 188.677016,48.6520786 188.677016,48.871921 C187.995656,48.8623626 187.314295,48.8432459 186.637427,48.9037822 C186.638924,49.3211642 186.638924,49.736953 186.637427,50.154335 C187.369702,50.179824 188.104973,50.1607072 188.840243,50.181417 C188.831259,50.4347137 188.825269,50.6880104 188.823771,50.941307 C187.823444,50.9349348 186.824614,50.9381209 185.825784,50.9381209 C185.782357,49.3721421 185.782357,47.8045702 185.825784,46.2385914 L185.825784,46.2385914 Z"
                      id="Shape"></path>
                <path d="M190.789983,46.2354053 C191.260197,46.2322192 191.733406,46.2338122 192.206615,46.2577081 C192.807111,47.5210054 193.395627,48.7890818 194.011097,50.0444138 C194.005107,48.7811165 193.987137,47.5194123 194.014092,46.2577081 C194.283642,46.254522 194.557683,46.2561151 194.831725,46.2608942 C194.82873,47.8220939 194.857183,49.3817005 194.815253,50.941307 C194.342044,50.9429001 193.870333,50.941307 193.400119,50.9190042 C192.793633,49.6588931 192.182655,48.401968 191.595636,47.1322985 C191.580661,48.4035611 191.652541,49.6764167 191.562691,50.9460862 C191.303625,50.9429001 191.047553,50.9429001 190.792978,50.9444932 C190.752546,49.3753282 190.758536,47.8045702 190.789983,46.2354053 L190.789983,46.2354053 Z"
                      id="Shape"></path>
                <path d="M196.839867,46.8885602 C196.949185,46.4249795 197.423891,46.2720457 197.820727,46.2354053 C198.455666,46.1796481 199.126544,46.1414147 199.734527,46.3819669 C200.186771,46.5858787 200.165806,47.1880557 200.225706,47.6245543 C199.948669,47.6245543 199.676125,47.6229613 199.405078,47.616589 C199.312233,47.4126772 199.309238,47.1386708 199.126544,46.9984814 C198.71024,46.8965255 198.269976,46.9028978 197.858165,47.0080398 C197.485288,47.2199169 197.65151,47.7169519 197.697933,48.0626461 C198.397263,48.2060216 199.134031,48.1327408 199.81689,48.3716999 C200.272128,48.5294129 200.294591,49.1188454 200.296088,49.5441927 C200.287103,50.0045873 200.248168,50.6545561 199.749502,50.8106761 C198.966312,51.0432629 198.109744,51.0416699 197.323559,50.836165 C196.7605,50.6625214 196.717073,49.944051 196.76649,49.4278992 C196.995607,49.4342715 197.230714,49.4406437 197.465821,49.4454229 C197.543691,49.6796028 197.614073,49.920155 197.733873,50.1399974 C198.274469,50.312048 198.856995,50.2626631 199.399088,50.1097293 C199.418556,49.8309436 199.479953,49.5489719 199.435028,49.2717793 C199.351168,48.9388296 198.973799,49.0057381 198.729707,48.9579463 C198.141192,48.8735141 197.440363,48.9818422 196.96416,48.5373782 C196.669153,48.0578669 196.726058,47.4222356 196.839867,46.8885602 L196.839867,46.8885602 Z"
                      id="Shape"></path>
                <path d="M202.190421,46.2338122 C202.464463,46.2354053 202.740002,46.2369983 203.018536,46.2401845 C203.024526,47.8061633 203.024526,49.3721421 203.018536,50.9381209 C202.740002,50.9381209 202.462965,50.939714 202.190421,50.9429001 C202.175446,49.3721421 202.173948,47.8029772 202.190421,46.2338122 L202.190421,46.2338122 Z"
                      id="Shape"></path>
                <path d="M204.709209,46.2401845 C204.995231,46.2385914 205.284248,46.2369983 205.574762,46.2385914 C205.989568,47.4955164 206.381912,48.7635929 206.729331,50.0460068 C207.169595,48.7986402 207.497547,47.5082609 207.909358,46.2481498 C208.19538,46.2417775 208.482899,46.2385914 208.773414,46.2354053 C208.388557,47.8268731 207.870423,49.3801074 207.380742,50.9381209 C206.952458,50.939714 206.527169,50.939714 206.103378,50.9301556 C205.634662,49.3673629 205.144981,47.8125355 204.709209,46.2401845 L204.709209,46.2401845 Z"
                      id="Shape"></path>
                <path d="M210.407182,46.2369983 C211.400022,46.2401845 212.392862,46.2385914 213.385701,46.2369983 C213.390194,46.488702 213.396184,46.7419986 213.408164,46.9952953 C212.687868,47.012819 211.970568,47.0048537 211.25177,47.0080398 C211.242785,47.3951536 211.23979,47.7822674 211.247277,48.1709742 C211.916658,48.1932771 212.589034,48.1948701 213.261409,48.1741603 C213.267399,48.4051542 213.274887,48.637741 213.288364,48.8687349 C212.608501,48.8623626 211.928638,48.8607696 211.25177,48.8767002 C211.236795,49.3068266 211.238292,49.7385461 211.254765,50.1686725 C211.979553,50.1702656 212.704341,50.1623003 213.432124,50.181417 C213.421641,50.4331206 213.414154,50.6848243 213.409661,50.9381209 C212.409334,50.9381209 211.407509,50.9349348 210.407182,50.939714 C210.372739,49.3721421 210.372739,47.8029772 210.407182,46.2369983 L210.407182,46.2369983 Z"
                      id="Shape"></path>
            </g>
            <g id="#221f20fa" transform="translate(214.441436, 28.197177)" opacity="0.98">
                <path d="M0.130282157,1.72209879 C-0.128784661,0.957429576 0.42978137,0.0318612172 1.20997682,0.033454278 C1.82844269,-0.044605704 2.25522907,0.506593353 2.54574331,1.00681446 L2.54574331,1.67908614 C2.29416397,2.02318729 2.04108713,2.43419699 1.61729575,2.54571125 C1.01829732,2.73209937 0.29650422,2.3848121 0.130282157,1.72209879 L0.130282157,1.72209879 Z M0.804155386,0.356845632 C0.094342252,0.72484269 0.118302189,1.95149955 0.837100299,2.29082151 C1.48102361,2.66041163 2.34507883,2.05504851 2.26720904,1.27444869 C2.29416397,0.509779474 1.41962627,-0.0175236694 0.804155386,0.356845632 L0.804155386,0.356845632 Z"
                      id="Shape"></path>
            </g>
            <g id="#1d1a1bd5" transform="translate(215.190184, 28.675095)" opacity="0.84">
                <path d="M0.107819717,0.0955836515 C0.428283874,0.100362834 0.750245527,0.114700382 1.07520217,0.141782416 C1.00931235,0.642003526 0.886517669,1.14859688 1.04375476,1.64722493 C0.831110315,1.3795907 0.618465874,1.11195648 0.363891543,0.893707141 C0.317469165,1.15018994 0.271046787,1.4082658 0.223126913,1.6647486 C-0.0494173701,1.1963887 0.125789669,0.61332843 0.107819717,0.0955836515 L0.107819717,0.0955836515 Z M0.290514236,0.275599528 C0.299499213,0.411009701 0.317469165,0.683423108 0.326454142,0.820426342 C0.579530976,0.745552481 0.976367433,0.72484269 0.919462583,0.331356658 C0.706818142,0.317019111 0.497168693,0.299495441 0.290514236,0.275599528 L0.290514236,0.275599528 Z"
                      id="Shape"></path>
            </g>
            <g id="#0403041b" transform="translate(215.339934, 28.834402)" opacity="0.11">
                <path d="M0.14076463,0.116293443 C0.347419087,0.140189355 0.557068535,0.157713025 0.769712976,0.172050573 C0.826617827,0.565536605 0.42978137,0.586246396 0.176704535,0.661120256 C0.167719559,0.524117022 0.149749606,0.251703616 0.14076463,0.116293443 L0.14076463,0.116293443 Z"
                      id="Shape"></path>
            </g>
        </g>
    </g>
</svg>