<svg width="141px" height="51px" viewBox="50 49 141 51" version="1.1" xmlns="http://www.w3.org/2000/svg" xmlns:xlink="http://www.w3.org/1999/xlink">
    <!-- Generator: Sketch 40.3 (33839) - http://www.bohemiancoding.com/sketch -->
    <desc>Created with Sketch.</desc>
    <defs></defs>
    <g id="runescape-grey.2edce928" stroke="none" stroke-width="1" fill="none" fill-rule="evenodd" transform="translate(50.000000, 49.000000)">
        <g id="Layer_1" fill="#FFFFFF">
            <g id="Group">
                <path d="M135.2,16.8692308 L135.2,16.8692308 C134.7,16.2153846 134.1,15.5615385 133.5,14.9076923 L133.2,14.5153846 C132.5,13.4692308 131.5,11.5076923 130.8,10.5923077 L131,9.15384615 C131,9.15384615 132.1,8.76153846 133.2,9.15384615 C133.2,9.15384615 129.8,6.66923077 124.1,5.1 C122.7,4.31538462 121.2,3.66153846 119.7,3.26923077 C117.9,2.61538462 116,2.35384615 114.2,2.09230769 C113.3,1.96153846 112.4,1.96153846 111.5,1.96153846 L108.9,1.96153846 C108.5,1.96153846 107.8,1.96153846 107,2.09230769 C92.7,2.48461538 81.3,10.5923077 74.3,22.2307692 C74.1,22.4923077 74,22.7538462 73.8,23.0153846 C73.3,22.6230769 72.8,22.2307692 72.3,21.7076923 C73.1,22.3615385 73.7,22.8846154 72.2,21.5769231 C70.6,20.2692308 71.3,20.9230769 72.1,21.5769231 C69.9,19.7461538 65.1,16.8692308 68.2,12.9461538 C70.1,10.4615385 74.4,12.4230769 74.9,16.3461538 L75.4,19.4846154 L75.4,10.7230769 L75.2,10.7230769 L75.2,10.7230769 C71,10.5923077 64.8,9.54615385 64.1,16.8692308 C63.6,22.4923077 68.1,24.1923077 71.3,26.9384615 C69.2,30.3384615 67,33.7384615 64.4,36.6153846 C63.9,35.9615385 63.5,35.0461538 63.4,34.2615385 C63.3,33.6076923 63.2,32.9538462 63.2,32.3 C63.2,26.5461538 67.9,27.9846154 67.9,27.9846154 L64.8,25.6307692 C62.2,28.2461538 62,30.9923077 62.1,32.3 C62.1,32.9538462 62.2,33.7384615 62.3,34.3923077 C62.5,35.7 63,36.7461538 63.6,37.5307692 C61.6,39.7538462 59.3,41.7153846 56.7,43.4153846 C52.7,45.5076923 49.2,47.0769231 43.5,47.0769231 C38.1,47.0769231 33,45.7692308 28.1,42.7615385 C21.8,38.8384615 17.3,33.0846154 14.5,26.4153846 C15.4,25.7615385 18.6,23.1461538 18.6,17.7846154 C18.6,9.41538462 10.9,10.0692308 10.9,10.0692308 L10.3,10.0692308 L11.5,11.6384615 C14.6,12.6846154 14.6,18.4384615 14.6,18.4384615 C14.6,23.1461538 13,25.1076923 11.6,26.1538462 C10.5,26.9384615 9.8,26.6769231 9.8,26.6769231 C9.8,26.6769231 10,28.6384615 10.9,30.6 C14,36.7461538 17.5,40.1461538 20.5,42.2384615 C28.5,48.6461538 38.8,51 48,48.9076923 L48.1,48.9076923 C48.2,48.9076923 48.3,48.7769231 48.3,48.7769231 C49.8,48.2538462 51.3,47.6 52.8,46.8153846 C57.5,44.7230769 61.1,41.8461538 64.2,38.3153846 C65.9,40.1461538 68.2,40.9307692 70.4,40.8 C73.3,40.6692308 76.9,38.0538462 77.9,34.2615385 C79.2,29.2923077 77.1,26.1538462 74.4,23.6692308 C74.5,23.4076923 74.7,23.2769231 74.8,23.0153846 C81.8,11.5076923 93.2,3.53076923 107.2,3.13846154 L109.6,3.13846154 C111.1,3.26923077 112.6,3.4 114.1,3.66153846 C115.8,4.05384615 117.6,4.44615385 119.3,5.23076923 C121,5.88461538 122.7,6.93076923 124.2,7.97692308 C124.9,8.5 126.7,10.0692308 127.3,10.8538462 C127.7,11.2461538 128.1,11.7692308 128.4,12.1615385 C129.7,13.7307692 130.8,15.5615385 131.6,17.3923077 C132.5,19.2230769 133.5,22.6230769 133.8,24.7153846 C134.1,26.4153846 134.2,28.1153846 134.2,29.8153846 C134.1,34 133.1,38.0538462 131.3,41.4538462 C130.9,42.2384615 130.4,42.8923077 130,43.5461538 C129.4,44.4615385 128.7,45.2461538 128,46.0307692 C126.2,47.7307692 124.3,48.2538462 123.5,48.6461538 C122,49.3 120.4,49.5615385 118.9,49.8230769 C117.4,50.0846154 115.9,50.0846154 114.5,49.9538462 C113.1,49.8230769 111.7,49.5615385 110.5,49.1692308 C109.2,48.7769231 108.1,48.3846154 107,47.7307692 C105.9,47.2076923 105.3,46.6846154 104.7,46.2923077 C104.8,46.1615385 105.6,45.5076923 106.4,45.7692308 C106.4,45.7692308 102.9,44.2 99.1,41.7153846 L105.2,48.9076923 L104.7,46.4230769 C105.3,46.8153846 105.9,47.3384615 106.9,47.8615385 C109.1,49.0384615 111.7,49.8230769 114.5,49.9538462 C115.9,50.0846154 117.4,50.0846154 119,49.9538462 C120.3,49.9538462 123.5,49.3 124.8,48.7769231 C126.1,48.2538462 127.4,47.7307692 128.7,46.9461538 C130.3,45.9 131.8,44.5923077 133.2,42.8923077 L133.2,42.8923077 L135.3,42.7615385 C135.3,42.7615385 135.9,43.9384615 135.9,45.2461538 C135.9,45.2461538 137.2,41.3230769 136.9,35.4384615 C137.1,34.2615385 137.5,30.8615385 137.5,29.6846154 L137.5,28.1153846 L137.5,26.6769231 L138.9,25.1076923 C138.9,25.1076923 140,25.6307692 140.7,26.6769231 C140.5,26.9384615 139.4,21.9692308 135.2,16.8692308 L135.2,16.8692308 Z M65.3,37.5307692 C65.2,37.5307692 65.2,37.4 65.1,37.4 C67.7,34.3923077 69.9,31.1230769 72,27.5923077 C73.1,28.6384615 74,29.8153846 74.3,31.5153846 C75.9,38.9692308 68.9,40.5384615 65.3,37.5307692 L65.3,37.5307692 Z"
                      id="Shape"></path>
                <path d="M128.8,18.4384615 L128.8,15.3 L118.3,15.3 C119.5,15.9538462 119.4,17.5230769 119.4,17.5230769 L119.4,23.6692308 C119,24.3230769 118.6,24.7153846 118.6,24.7153846 C118.6,24.7153846 119.1,25.1076923 119.4,25.7615385 L119.4,32.6923077 C119.4,32.9538462 119.4,33.3461538 119.3,33.6076923 C119.2,34 118.9,34.6538462 118.3,35.1769231 L128.7,35.1769231 L128.7,31.9076923 C128.5,33.3461538 127.2,33.3461538 127.2,33.3461538 L122.2,33.3461538 L122.2,25.7615385 L125.1,25.7615385 C125.1,25.7615385 125.9,25.6307692 126.3,26.8076923 L126.3,23.1461538 C125.9,24.3230769 125,24.1923077 125,24.1923077 L122.2,24.1923077 L122.2,17.1307692 L127.2,17.1307692 C127.3,17.1307692 128.4,17 128.8,18.4384615 L128.8,18.4384615 Z"
                      id="Shape"></path>
                <path d="M99.8,35.1769231 L105.8,35.1769231 C104.6,34.1307692 104.3,33.4769231 104,32.9538462 C103.9,32.6923077 102.8,29.5538462 101.7,25.8923077 C101.7,25.7615385 101.7,25.1076923 102.3,24.0615385 L101.1,24.0615385 C99.7,19.6153846 98.3,15.3 98.3,15.3 L98.2,15.3 L97.2,15.3 L94.9,15.3 C96.1,16.0846154 96.4,17.7846154 96.4,17.7846154 L94.4,24.0615385 L93.2,24.0615385 C93.8,25.1076923 93.8,25.8923077 93.8,25.8923077 L92.8,28.9 C92.6,29.6846154 91.1,31.7769231 90.3,32.4307692 C89.5,33.0846154 88.2,33.8692308 86.4,33.8692308 C84.7,33.8692308 83.6,33.4769231 82.7,32.4307692 C82.2,31.9076923 81.8,31.1230769 81.5,30.3384615 C81.1,29.2923077 81,28.1153846 80.9,27.0692308 L80.9,25.8923077 C81.3,25.2384615 81.7,24.8461538 81.7,24.8461538 C81.7,24.8461538 81.2,24.4538462 80.9,23.8 L80.9,23.2769231 C81,22.1 81.2,20.9230769 81.6,19.8769231 C81.9,19.0923077 82.3,18.4384615 82.7,17.9153846 C83.6,16.8692308 84.7,16.4769231 86.4,16.4769231 C88.2,16.4769231 89.6,17.1307692 90.2,18.0461538 C90.6,18.5692308 90.8,19.3538462 91,20.1384615 L91,15.6923077 C90.4,15.5615385 89.9,15.4307692 89.4,15.3 C88.5,15.1692308 87.8,15.0384615 86.5,15.0384615 C83.9,15.0384615 82.2,15.8230769 80.8,17.1307692 L80.8,17.1307692 C80.6,17.2615385 80.4,17.5230769 80.3,17.6538462 C80.2,17.7846154 80.1,17.9153846 80,18.1769231 C79.5,18.8307692 79.2,19.6153846 78.9,20.4 C78.8,20.5307692 78.8,20.7923077 78.7,20.9230769 C78.4,21.8384615 78.2,22.7538462 78.1,23.8 C77.7,24.4538462 77.3,24.8461538 77.3,24.8461538 C77.3,24.8461538 77.7,25.2384615 78.1,25.8923077 C78.1,27.0692308 78.3,28.3769231 78.7,29.4230769 C78.8,29.5538462 78.8,29.6846154 78.9,29.9461538 C79.2,30.7307692 79.6,31.5153846 80,32.1692308 C80.1,32.3 80.2,32.5615385 80.3,32.6923077 C81.2,33.7384615 82.3,34.5230769 83.7,35.0461538 L83.7,35.0461538 C84.5,35.3076923 85.4,35.4384615 86.5,35.4384615 L86.4,35.4384615 L94.6,35.4384615 C94,34.9153846 93.7,34.2615385 93.6,33.8692308 C93.6,33.6076923 93.5,33.2153846 93.5,33.0846154 C93.5,33.0846154 94,31.3846154 94.7,29.1615385 L99.6,29.1615385 C100.2,31.2538462 100.7,32.9538462 100.7,32.9538462 C100.8,33.0846154 100.7,33.6076923 100.6,33.8692308 C100.6,34.1307692 100.4,34.6538462 99.8,35.1769231 L99.8,35.1769231 Z M95.3,27.2 C96,25.1076923 96.7,22.7538462 97.2,20.9230769 C97.7,22.4923077 98.2,24.3230769 98.8,26.1538462 L99.1,27.2 L95.3,27.2 L95.3,27.2 Z"
                      id="Shape"></path>
                <path d="M61.8,18.4384615 L61.8,15.3 L51.3,15.3 C52.5,15.9538462 52.4,17.5230769 52.4,17.5230769 L52.4,23.6692308 C52,24.4538462 51.6,24.8461538 51.6,24.8461538 C51.6,24.8461538 52.1,25.2384615 52.4,25.8923077 L52.4,32.8230769 C52.4,33.0846154 52.4,33.4769231 52.3,33.7384615 C52.2,34.1307692 51.9,34.7846154 51.3,35.3076923 L61.7,35.3076923 L61.7,32.0384615 C61.5,33.4769231 60.2,33.4769231 60.2,33.4769231 L55.2,33.4769231 L55.2,25.8923077 L58.1,25.8923077 C58.1,25.8923077 58.9,25.7615385 59.3,26.9384615 L59.3,23.2769231 C58.9,24.4538462 58,24.3230769 58,24.3230769 L55.2,24.3230769 L55.2,17.1307692 L60.2,17.1307692 C60.2,17 61.4,16.8692308 61.8,18.4384615 L61.8,18.4384615 Z"
                      id="Shape"></path>
                <path d="M49.5,32.9538462 L49.5,28.1153846 L49.5,28.1153846 L49.5,25.8923077 C49.9,25.2384615 50.3,24.8461538 50.3,24.8461538 C50.3,24.8461538 49.8,24.4538462 49.5,23.8 L49.5,17.5230769 C49.5,17.2615385 49.5,17 49.6,16.8692308 C49.7,16.4769231 50,15.9538462 50.6,15.4307692 L45.9,15.4307692 C47.1,16.4769231 47,17.5230769 47,17.5230769 L47,29.6846154 L39.9,15.3 L36.3,15.3 C37.5,16.0846154 37.4,17.3923077 37.4,17.3923077 L37.4,23.6692308 C37,24.4538462 36.5,24.8461538 36.5,24.8461538 C36.5,24.8461538 37,25.2384615 37.3,25.8923077 L37.3,32.8230769 C37.3,33.0846154 37.3,33.4769231 37.2,33.7384615 C37.1,34.1307692 36.8,34.7846154 36.2,35.3076923 L41,35.3076923 C39.8,34.2615385 39.9,32.9538462 39.9,32.9538462 L39.9,20.7923077 L46.8,35.3076923 L50.5,35.3076923 C49.4,34.3923077 49.5,32.9538462 49.5,32.9538462 L49.5,32.9538462 Z"
                      id="Shape"></path>
                <path d="M34.6,23.8 L34.6,17.5230769 C34.6,17.5230769 34.5,16.2153846 35.7,15.4307692 L35.3,15.4307692 L35.3,15.4307692 L35.3,15.4307692 L33.5,15.4307692 L32.3,15.4307692 L31.4,15.4307692 L31.3,15.4307692 L30.8,15.4307692 L30.7,15.4307692 C31.3,15.9538462 31.6,16.3461538 31.7,16.8692308 C31.7,17.1307692 31.8,17.2615385 31.8,17.6538462 L31.8,19.6153846 L31.8,22.3615385 L31.8,23.9307692 C31.4,24.4538462 31,24.8461538 31,24.8461538 C31,24.8461538 31.5,25.2384615 31.8,25.8923077 L31.8,27.5923077 L31.8,28.9 L31.8,29.4230769 C31.8,29.8153846 31.7,30.2076923 31.6,30.6 C31.5,31.1230769 31.3,31.6461538 31.1,32.1692308 C30.8,32.6923077 30.4,33.2153846 29.9,33.6076923 C29.4,34 28.8,34.2615385 28.2,34.2615385 C27.6,34.2615385 27,34.1307692 26.4,33.7384615 C25.9,33.4769231 25.5,32.9538462 25.2,32.4307692 C24.9,31.9076923 24.7,31.3846154 24.6,30.8615385 C24.5,30.4692308 24.5,30.0769231 24.4,29.6846154 C24.4,29.4230769 24.4,29.1615385 24.3,29.0307692 L24.3,27.7230769 L24.3,26.1538462 C24.6,25.5 25.1,25.1076923 25.1,25.1076923 C25.1,25.1076923 24.7,24.7153846 24.3,24.0615385 L24.3,22.4923077 L24.3,19.7461538 L24.3,17.7846154 L24.3,17.6538462 C24.3,17.3923077 24.4,17.1307692 24.4,17 C24.5,16.6076923 24.8,16.0846154 25.4,15.5615385 L25.3,15.5615385 L24.8,15.5615385 L24.7,15.5615385 L23.8,15.5615385 L22.6,15.5615385 L20.8,15.5615385 L20.8,15.5615385 L20.8,15.5615385 L20.4,15.5615385 C21.6,16.3461538 21.5,17.6538462 21.5,17.6538462 L21.5,23.9307692 C21.2,24.5846154 20.7,24.9769231 20.7,24.9769231 C20.7,24.9769231 21.2,25.3692308 21.5,26.0230769 L21.5,27.7230769 C21.5,30.3384615 21.8,34.2615385 25.5,35.5692308 C26.1,35.8307692 26.8,35.9615385 27.7,35.9615385 L28.1,35.9615385 L28.5,35.9615385 C29.4,35.9615385 30.1,35.8307692 30.7,35.4384615 C34.4,34.1307692 34.6,30.3384615 34.6,27.5923077 L34.6,25.8923077 C34.9,25.2384615 35.4,24.8461538 35.4,24.8461538 C35.4,24.8461538 35,24.4538462 34.6,23.8 L34.6,23.8 Z"
                      id="Shape"></path>
                <path d="M10.1,9.93846154 L10.1,9.93846154 L9.1,9.93846154 L9.1,9.93846154 L7,9.93846154 L6.7,4.05384615 C6.7,3.79230769 6.7,3.53076923 6.6,3.26923077 C6.8,3.00769231 7,2.61538462 7,2.22307692 C7,1.43846154 6.5,0.784615385 5.9,0.784615385 C5.3,0.784615385 4.8,1.43846154 4.8,2.22307692 C4.9,2.61538462 5,3.00769231 5.3,3.26923077 C5.2,3.53076923 5.2,3.79230769 5.2,4.05384615 L4.9,9.93846154 L1.6,9.93846154 L1.6,9.93846154 L0.5,11.3769231 L1.6,12.8153846 L2.7,11.3769231 L3.4,11.3769231 C3.7,11.9 4,12.5538462 4,13.2076923 L4,23.8 C3.6,24.4538462 3.2,24.8461538 3.2,24.8461538 C3.2,24.8461538 3.6,25.2384615 4,25.8923077 L4,27.4615385 C4,27.4615385 4.2,39.4923077 3.4,41.5846154 C3.4,41.5846154 5.3,45.7692308 6,47.0769231 C6,47.0769231 8,42.8923077 8.6,41.5846154 C7.6,39.2307692 7.7,27.4615385 7.7,27.4615385 L7.7,13.2076923 C7.7,12.4230769 8,11.9 8.3,11.3769231 L9,11.3769231 L10.1,12.8153846 L11.2,11.3769231 L10.1,9.93846154 L10.1,9.93846154 Z"
                      id="Shape"></path>
                <path d="M112.2,15.3 L105,15.3 L105,15.3 L105,15.3 C105,15.3 106.2,15.9538462 106.2,17.3923077 L106.2,23.8 C105.9,24.4538462 105.4,24.8461538 105.4,24.8461538 C105.4,24.8461538 105.8,25.2384615 106.2,25.8923077 L106.2,29.5538462 L106.2,29.8153846 L106.2,36.4846154 L106.2,36.4846154 C106.2,38.9692308 106.1,41.1923077 105.8,41.7153846 L105.8,41.7153846 L105.8,41.7153846 C105.8,41.7153846 107.1,44.3307692 107.6,45.1153846 C107.6,45.1153846 109,42.6307692 109.4,41.7153846 L109.4,41.7153846 L109.4,41.7153846 C109.2,41.1923077 109.1,38.9692308 109,36.4846154 L109,28.5076923 L110,28.5076923 L110.4,28.5076923 L110.9,28.5076923 L110.9,28.5076923 C113.3,28.3769231 118.1,27.3307692 118.1,21.5769231 C118.2,15.1692308 112.2,15.3 112.2,15.3 L112.2,15.3 Z M114.9,21.8384615 C114.9,23.5384615 113.8,26.4153846 111,26.4153846 L109,26.4153846 L109,25.5 L109,20.6615385 L109,17.1307692 C109,16.4769231 110.4,16.6076923 110.7,16.6076923 C115.1,16.8692308 114.9,21.8384615 114.9,21.8384615 L114.9,21.8384615 Z"
                      id="Shape"></path>
            </g>
        </g>
    </g>
</svg>