<svg width="177px" height="49px" viewBox="8 72 177 49" version="1.1" xmlns="http://www.w3.org/2000/svg" xmlns:xlink="http://www.w3.org/1999/xlink">
    <!-- Generator: Sketch 40.3 (33839) - http://www.bohemiancoding.com/sketch -->
    <desc>Created with Sketch.</desc>
    <defs></defs>
    <g id="warcraft" stroke="none" stroke-width="1" fill="none" fill-rule="evenodd" transform="translate(8.000000, 72.000000)">
        <g id="Group" fill="#FFFFFF">
            <polygon id="Shape" points="81.84 10.178 90.627 0.687 100.047 10.318 95.127 13.201 91.893 9.896 89.643 12.216 89.643 36.329 91.893 38.578 97.307 34.22 99.555 40.055 90.838 48.069 81.84 38.367"></polygon>
            <path d="M96.674,14.536 L109.748,7.014 L121.137,19.316 L113.616,26.417 L118.677,28.736 L118.677,35.837 C118.677,38.228 119.382,39.352 121.138,41.039 L114.39,41.039 C112.913,39.984 111.648,37.806 111.648,34.993 L111.648,31.971 L107.783,29.44 L107.783,35.978 C107.783,37.947 108.203,38.86 110.101,41.04 L98.431,41.04 C101.243,38.158 101.243,36.189 101.243,33.728 L101.243,16.926 L96.674,14.536 L96.674,14.536 L96.674,14.536 Z M107.781,15.099 L107.781,22.831 L111.646,19.176 L107.781,15.099 L107.781,15.099 L107.781,15.099 Z"
                  id="Shape"></path>
            <path d="M56.322,15.379 L68.905,7.436 L81.067,20.02 L73.686,26.839 L78.888,29.44 L78.888,35.908 C78.888,38.298 79.943,39.352 81.7,41.04 L74.74,41.04 C73.194,39.985 71.647,37.736 71.647,35.557 L71.647,32.885 L67.71,30.425 L67.71,36.119 C67.71,38.017 68.062,38.931 70.1,41.04 L58.079,41.04 C60.961,38.298 60.961,36.33 60.961,33.939 L60.961,17.7 L56.322,15.379 L56.322,15.379 L56.322,15.379 Z M67.71,15.59 L67.71,23.394 L72.068,19.879 L67.71,15.59 L67.71,15.59 L67.71,15.59 Z"
                  id="Shape"></path>
            <path d="M40.293,14.466 C44.089,12.357 48.588,9.756 52.314,7.576 C51.681,11.232 51.61,12.638 52.455,15.661 C53.439,19.176 54.282,22.058 55.126,24.94 C56.462,24.729 57.868,24.588 59.274,24.518 L59.274,27.048 C58.149,27.259 57.024,27.611 55.97,27.963 C56.532,30.071 57.165,32.251 57.868,34.711 C58.781,38.086 59.133,39.28 61.312,41.038 L50.064,41.038 C52.103,36.82 51.61,34.992 50.837,32.11 L50.345,30.212 C48.236,31.267 46.549,32.461 45.002,33.727 C43.947,34.571 43.455,34.922 43.314,36.258 C43.173,38.296 44.509,39.421 46.337,41.038 L35.159,41.038 C37.971,39.069 38.252,37.594 38.674,35.555 C39.799,30.072 40.924,24.729 42.049,19.316 C42.613,16.645 42.472,15.59 40.293,14.466 L40.293,14.466 L40.293,14.466 Z M49.292,26.417 L46.972,17.98 C46.902,18.261 45.847,24.026 44.793,28.876 C46.339,27.823 47.745,27.049 49.292,26.417 L49.292,26.417 L49.292,26.417 Z"
                  id="Shape"></path>
            <path d="M122.543,13.481 C126.551,11.302 131.33,8.63 135.268,6.381 C134.565,10.107 134.565,11.654 135.409,14.747 C136.323,17.91 137.097,20.582 137.87,23.253 C139.417,22.972 140.891,22.831 142.509,22.69 L142.509,25.432 C141.173,25.713 139.98,26.065 138.855,26.487 C139.558,28.947 140.261,31.548 141.103,34.501 C142.158,38.017 142.509,39.211 144.759,41.039 L133.019,41.039 C135.199,36.681 134.636,34.782 133.863,31.83 L133.09,29.018 C130.77,30.284 128.801,31.76 127.186,33.236 C126.342,34.009 126.131,34.291 125.85,35.416 C125.358,37.947 126.764,39.212 128.942,41.04 L117.063,41.04 C120.084,39.001 120.366,37.454 120.858,35.346 C122.053,29.652 123.178,24.239 124.444,18.474 C125.004,15.802 124.863,14.677 122.543,13.481 L122.543,13.481 L122.543,13.481 Z M131.963,24.94 L129.715,17.137 C129.645,17.418 128.59,22.69 127.535,27.471 C129.01,26.417 130.416,25.573 131.963,24.94 L131.963,24.94 L131.963,24.94 Z"
                  id="Shape"></path>
            <path d="M157.412,8.771 L176.252,8.771 L176.252,17.066 C175.197,16.012 174.424,15.308 172.807,15.308 L169.786,15.308 L169.786,33.234 C169.786,36.89 171.122,39.35 173.229,41.038 L160.366,41.038 C163.177,38.577 163.247,36.328 163.247,33.305 L163.247,15.308 L160.999,15.308 C159.03,15.308 158.397,15.941 157.413,17.066 C157.412,14.325 157.412,11.584 157.412,8.771 L157.412,8.771 L157.412,8.771 Z"
                  id="Shape"></path>
            <path d="M139.205,15.45 C143.844,12.216 148.414,8.983 153.053,5.749 C154.53,7.295 155.936,8.842 157.412,10.389 L157.412,17.067 C156.146,15.872 154.881,14.677 153.685,13.552 C152.841,14.114 151.999,14.747 151.154,15.309 L151.154,21.988 L157.412,21.988 L157.412,28.806 C156.357,27.682 155.514,27.682 154.6,27.682 L151.155,27.682 L151.155,34.641 C151.155,37.242 151.155,38.999 153.616,41.038 L141.737,41.038 C143.985,38.858 144.126,37.945 144.126,34.219 L144.126,17.347 C142.508,16.715 140.82,16.083 139.205,15.45 L139.205,15.45 L139.205,15.45 Z"
                  id="Shape"></path>
            <path d="M0.504,1.952 L12.806,1.952 C11.681,4.835 12.314,7.998 12.876,10.669 C14.071,16.223 15.196,21.707 16.391,27.189 C18.289,19.175 20.188,11.161 22.016,3.147 C23.984,11.021 25.882,18.894 27.85,26.698 C28.834,21.073 30.03,13.762 31.013,8.068 C31.646,4.483 31.786,3.499 29.959,1.952 L42.823,1.952 C39.379,5.679 39.168,7.155 38.183,12.708 C36.988,19.667 35.793,26.557 34.668,33.516 C34.106,36.539 33.825,38.507 35.723,41.038 L23.702,41.038 C24.475,38.436 24.124,36.398 23.702,34.289 C23.28,31.547 22.788,28.876 22.296,26.135 C21.875,28.103 21.382,30.142 20.961,32.111 C19.907,36.61 19.555,38.157 20.75,41.039 L8.167,41.039 C10.909,38.859 11.049,38.087 9.713,32.393 C8.026,25.363 5.917,16.224 4.23,9.194 C3.246,4.905 3.175,4.483 0.504,1.952 L0.504,1.952 L0.504,1.952 Z"
                  id="Shape"></path>
        </g>
    </g>
</svg>