<?xml version="1.0" encoding="UTF-8"?>
<svg width="402px" height="152px" viewBox="0 0 402 152" version="1.1" xmlns="http://www.w3.org/2000/svg" xmlns:xlink="http://www.w3.org/1999/xlink">
    <!-- Generator: Sketch 40.3 (33839) - http://www.bohemiancoding.com/sketch -->
    <title>Group 3</title>
    <desc>Created with Sketch.</desc>
    <defs></defs>
    <g id="Symbols" stroke="none" stroke-width="1" fill="none" fill-rule="evenodd">
        <g id="Head" transform="translate(-291.000000, -135.000000)" fill="#FFFFFF">
            <g id="Group-3" transform="translate(287.000000, 126.000000)">
                <text id="LARS-BÄCKER" font-family="Nobile-Regular, Nobile" font-size="64" font-weight="normal" letter-spacing="-1.50588238">
                    <tspan x="0" y="68">LARS</tspan>
                    <tspan x="0" y="154">BÄCKER</tspan>
                </text>
                <g id="Language-02" transform="translate(274.000000, 9.000000)">
                    <g id="Layer_1">
                        <g id="XMLID_2_">
                            <path d="M56.3538462,91.4533333 C56.3538462,91.7066667 55.8461538,91.7066667 55.3384615,91.4533333 C54.5769231,91.2 53.8153846,90.9466667 52.5461538,90.44 L50.7692308,89.68 C48.2307692,88.6666667 45.6923077,87.1466667 43.4076923,85.6266667 C42.9,85.3733333 41.8846154,84.36 39.8538462,82.84 C37.8230769,81.32 36.8076923,80.56 36.5538462,80.3066667 C32.7461538,86.1333333 28.9384615,91.2 25.1307692,95.76 C20.5615385,101.08 17.5153846,104.12 16.2461538,105.133333 C15.9923077,105.133333 15.4846154,105.386667 14.4692308,105.386667 L12.9461538,105.386667 C13.2,105.133333 15.4846154,102.6 19.8,97.5333333 C21.0692308,96.2666667 23.3538462,92.9733333 27.1615385,87.6533333 C30.7153846,82.5866667 33,79.2933333 33.7615385,77.52 C34.7769231,75.7466667 36.0461538,72.96 38.0769231,69.16 C40.1076923,65.36 41.1230769,63.08 41.1230769,62.5733333 C40.6153846,62.5733333 37.5692308,63.3333333 31.7307692,65.36 C31.2230769,65.36 30.4615385,65.6133333 29.4461538,66.12 C28.4307692,66.6266667 27.4153846,66.6266667 26.4,66.88 C25.6384615,67.1333333 25.1307692,67.1333333 24.8769231,67.3866667 C24.8769231,67.3866667 24.6230769,67.8933333 24.6230769,68.4 L24.6230769,69.16 C24.3692308,69.6666667 23.3538462,70.1733333 22.0846154,70.4266667 C20.8153846,70.9333333 19.5461538,70.9333333 18.0230769,70.4266667 C17.0076923,70.1733333 16.2461538,69.6666667 15.7384615,68.6533333 C15.4846154,68.4 15.4846154,67.64 15.2307692,66.6266667 C15.4846154,66.6266667 16.2461538,66.3733333 17.2615385,66.12 C18.2769231,65.8666667 19.0384615,65.8666667 19.8,65.6133333 C23.1,64.6 26.1461538,63.84 28.6846154,62.8266667 C34.2692308,60.8 37.3153846,59.7866667 37.3153846,59.7866667 C37.8230769,59.7866667 39.0923077,59.0266667 40.8692308,58.0133333 C42.6461538,57 43.9153846,56.4933333 44.6769231,56.24 C45.1846154,55.9866667 45.6923077,55.7333333 46.4538462,55.48 C47.2153846,55.2266667 47.4692308,54.9733333 47.7230769,54.9733333 L48.2307692,54.9733333 L48.2307692,57.76 C48.2307692,57.76 47.9769231,58.52 47.2153846,60.04 C46.4538462,61.56 45.6923077,63.08 44.9307692,64.6 C44.1692308,66.12 43.6615385,67.1333333 43.4076923,67.3866667 C41.8846154,70.1733333 39.8538462,73.9733333 36.8076923,78.5333333 L42.1384615,80.8133333 C42.9,81.0666667 44.9307692,82.08 48.4846154,83.6 C52.0384615,85.12 53.8153846,85.88 54.3230769,85.88 C54.5769231,85.88 54.8307692,86.64 55.3384615,88.16 C56.3538462,90.1866667 56.3538462,91.2 56.3538462,91.4533333 L56.3538462,91.4533333 Z M38.8384615,50.16 C39.0923077,50.92 38.8384615,51.68 38.5846154,52.44 C37.8230769,53.7066667 36.5538462,54.72 34.2692308,55.7333333 C32.4923077,56.4933333 30.9692308,56.7466667 29.1923077,56.7466667 C27.6692308,56.4933333 26.4,55.7333333 25.1307692,54.4666667 C24.3692308,53.7066667 23.8615385,52.44 23.6076923,50.92 L23.6076923,50.6666667 C23.8615385,50.92 24.3692308,50.92 25.3846154,51.1733333 L27.6692308,51.1733333 C28.1769231,51.1733333 29.9538462,50.6666667 32.4923077,49.9066667 C34.5230769,49.1466667 36.0461538,48.8933333 37.0615385,48.64 C38.0769231,48.8933333 38.5846154,49.1466667 38.8384615,50.16 L38.8384615,50.16 Z M98.2384615,61.0533333 L103.569231,80.3066667 L91.6384615,76.76 L98.2384615,61.0533333 L98.2384615,61.0533333 Z M4.06153846,128.946667 L62.9538462,109.186667 L62.9538462,21.7866667 L4.06153846,41.5466667 L4.06153846,128.946667 L4.06153846,128.946667 Z M109.407692,102.093333 L118.038462,104.626667 L102.553846,48.8933333 L94.1769231,46.36 L75.9,91.7066667 L84.5307692,94.24 L88.3384615,84.8666667 L106.361538,90.44 L109.407692,102.093333 L109.407692,102.093333 Z M66.7615385,20.52 L115.5,36.2266667 L115.5,3.8 L66.7615385,20.52 L66.7615385,20.52 Z M93.1615385,132.746667 L106.615385,133.76 L102.046154,147.44 L98.7461538,141.866667 C91.3846154,146.68 83.5153846,149.72 75.3923077,150.986667 C72.0923077,151.746667 69.5538462,152 67.7769231,152 L60.6692308,152 C56.1,152 50.5153846,150.986667 43.6615385,148.706667 C36.8076923,146.426667 31.7307692,144.146667 28.1769231,141.613333 C27.6692308,141.106667 27.4153846,140.853333 27.4153846,140.346667 C27.4153846,139.84 27.6692308,139.586667 27.9230769,139.08 C28.1769231,138.826667 28.6846154,138.573333 28.9384615,138.573333 C29.1923077,138.573333 29.7,138.826667 30.4615385,139.333333 C31.2230769,139.84 32.2384615,140.346667 33,140.853333 C34.0153846,141.36 34.5230769,141.613333 34.7769231,141.866667 C38.8384615,143.893333 43.4076923,145.666667 48.2307692,147.186667 C53.0538462,148.453333 57.6230769,149.213333 61.6846154,149.213333 C67.0153846,149.213333 71.8384615,148.706667 75.9,147.946667 C79.9615385,147.186667 84.5307692,145.666667 89.3538462,143.64 C90.1153846,143.133333 91.1307692,142.88 91.8923077,142.373333 C92.6538462,141.866667 93.6692308,141.36 94.6846154,140.853333 C95.7,140.346667 96.4615385,139.84 97.2230769,139.333333 L93.1615385,132.746667 L93.1615385,132.746667 Z M131.238462,41.2933333 L131.238462,132.746667 L65.4923077,111.973333 C64.7307692,112.226667 54.0692308,116.026667 33.5076923,122.866667 C12.9461538,129.706667 2.53846154,133.253333 2.28461538,133.253333 C1.52307692,133.253333 1.01538462,133 0.761538462,132.24 L0.761538462,131.986667 L0.761538462,40.28 C1.01538462,39.7733333 1.01538462,39.52 1.01538462,39.52 C1.26923077,39.2666667 1.77692308,38.76 2.79230769,38.5066667 C8.88461538,36.48 12.9461538,35.2133333 15.4846154,34.2 L15.4846154,1.52 L62.9538462,18.24 C62.9538462,18.24 67.5230769,16.72 76.6615385,13.68 C85.5461538,10.64 94.6846154,7.6 103.569231,4.56 C112.453846,1.52 116.769231,0 117.023077,0 C118.038462,0 118.8,0.506666667 118.8,1.77333333 L118.8,37.24 L131.238462,41.2933333 L131.238462,41.2933333 Z"
                                  id="XMLID_12_"></path>
                        </g>
                    </g>
                </g>
            </g>
        </g>
    </g>
</svg>